<?xml version="1.0" encoding="UTF-8" standalone="no"?>
<!-- Created with Inkscape (http://www.inkscape.org/) -->

<svg
   width="34.935574mm"
   height="40.257095mm"
   viewBox="0 0 34.935574 40.257095"
   version="1.1"
   id="svg5"
   xml:space="preserve"
   inkscape:version="1.2.2 (732a01da63, 2022-12-09, custom)"
   sodipodi:docname="logo.svg"
   xmlns:inkscape="http://www.inkscape.org/namespaces/inkscape"
   xmlns:sodipodi="http://sodipodi.sourceforge.net/DTD/sodipodi-0.dtd"
   xmlns="http://www.w3.org/2000/svg"
   xmlns:svg="http://www.w3.org/2000/svg"><sodipodi:namedview
     id="namedview7"
     pagecolor="#ffffff"
     bordercolor="#666666"
     borderopacity="1.0"
     inkscape:showpageshadow="2"
     inkscape:pageopacity="0.0"
     inkscape:pagecheckerboard="0"
     inkscape:deskcolor="#d1d1d1"
     inkscape:document-units="mm"
     showgrid="false"
     inkscape:zoom="4.7389817"
     inkscape:cx="66.892007"
     inkscape:cy="73.116973"
     inkscape:window-width="1880"
     inkscape:window-height="1136"
     inkscape:window-x="40"
     inkscape:window-y="27"
     inkscape:window-maximized="1"
     inkscape:current-layer="layer1" /><defs
     id="defs2"><clipPath
       clipPathUnits="userSpaceOnUse"
       id="clipPath2168"><rect
         style="fill:#ffffff;fill-opacity:0.444563;stroke:#000000;stroke-width:0;stroke-linecap:round;stroke-linejoin:round;stroke-miterlimit:4;stroke-dasharray:none"
         id="rect2170"
         width="2524.041"
         height="1584.7126"
         x="-1721.2743"
         y="-2110.6108"
         transform="scale(-1)" /></clipPath><clipPath
       clipPathUnits="userSpaceOnUse"
       id="clipPath452"><rect
         style="fill:#4d4d4d;stroke:#000000;stroke-width:0.138;stroke-linecap:round;stroke-linejoin:round"
         id="rect454"
         width="30.673386"
         height="11.755253"
         x="64.807556"
         y="175.87627" /></clipPath><clipPath
       clipPathUnits="userSpaceOnUse"
       id="clipPath1518"><rect
         style="fill:#172b4f;fill-opacity:0.292887;stroke:none;stroke-width:1.32225;stroke-linecap:round;stroke-linejoin:round;stroke-dashoffset:0.399999"
         id="rect1520"
         width="33.692196"
         height="15.629662"
         x="62.97216"
         y="-180.53116"
         transform="scale(1,-1)" /></clipPath><clipPath
       clipPathUnits="userSpaceOnUse"
       id="clipPath1518-5"><rect
         style="fill:#172b4f;fill-opacity:0.292887;stroke:none;stroke-width:1.32225;stroke-linecap:round;stroke-linejoin:round;stroke-dashoffset:0.399999"
         id="rect1520-3"
         width="33.692196"
         height="15.629662"
         x="62.97216"
         y="-180.53116"
         transform="scale(1,-1)" /></clipPath></defs><g
     inkscape:label="Layer 1"
     inkscape:groupmode="layer"
     id="layer1"
     transform="translate(-62.158437,-158.30394)"><path
       sodipodi:type="star"
       style="fill:#ffffff;stroke:#000000;stroke-width:1.20945;stroke-linejoin:round;stroke-miterlimit:4;stroke-dasharray:none;stroke-opacity:1"
       id="path891"
       inkscape:flatsided="true"
       sodipodi:sides="6"
       sodipodi:cx="-48.832626"
       sodipodi:cy="-39.528706"
       sodipodi:r1="75.471756"
       sodipodi:r2="38.159691"
       sodipodi:arg1="0.52214479"
       sodipodi:arg2="1.0457436"
       inkscape:rounded="0"
       inkscape:randomized="0"
       transform="matrix(0.26458333,0,0,0.26458333,92.546519,188.89112)"
       inkscape:transform-center-x="4.2141042"
       inkscape:transform-center-y="-3.1627129"
       inkscape:export-filename="../38fa9565/logo.svg"
       inkscape:export-xdpi="200"
       inkscape:export-ydpi="200"
       d="m 16.58263,-1.8879006 -65.305522,37.8308716 -65.415258,-37.6408054 -0.10973,-75.4716766 65.305519,-37.830869 65.415256,37.640803 z" /><g
       id="g500"
       transform="matrix(1.3178549,0,0,1.3178549,-25.536578,-51.694797)"><g
         fill="#305699"
         id="g1564"
         transform="matrix(-0.01836193,0,0,-0.01836193,90.841433,185.87149)"
         clip-path="url(#clipPath2168)"
         style="fill:#666666;stroke-width:47.6839;stroke-miterlimit:4;stroke-dasharray:none"><path
           d="m 237.36,176.75 c 0.43359,-0.35938 0.43359,-0.35938 0.875,-0.70703 -0.0117,0 -0.0117,0 0.40625,-0.38281 -0.48047,0.28906 -0.48047,0.28906 -0.97266,0.625 -0.0117,-0.0117 0.14453,-0.17969 0.22656,-0.25391 -0.37109,0.32422 -0.74219,0.63672 -1.1055,0.96094 0.0586,0.0586 0.10938,0.12109 0.23828,0.25391 0.37891,-0.42188 0.37891,-0.42188 0.33203,-0.49609 z"
           id="path1534"
           style="fill:#666666;stroke-width:47.6839;stroke-miterlimit:4;stroke-dasharray:none" /><path
           d="m 191.5,222.74 -0.0117,-0.0117 c -0.25391,0.27734 -0.49219,0.5625 -0.74219,0.85156 0.14062,-0.15234 0.32031,-0.35938 0.75391,-0.83984 z"
           id="path1536"
           style="fill:#666666;stroke-width:47.6839;stroke-miterlimit:4;stroke-dasharray:none" /><path
           d="m 58.738,671.5 c 0,0.27734 0.01172,0.43359 0,0.50391 0.01563,-0.0703 0.01563,-0.21484 0,-0.50391 z"
           id="path1538"
           style="fill:#666666;stroke-width:47.6839;stroke-miterlimit:4;stroke-dasharray:none" /><path
           d="m 241.93,172.56 c -0.82812,0.74219 -0.82812,0.74219 -1.6797,1.4883 -0.25391,0.17969 -0.32422,0.22656 -0.46875,0.32422 -0.42188,0.38281 -0.86328,0.74219 -1.2852,1.1289 0.43359,-0.32422 0.68359,-0.51562 1.3672,-1.0195 0.49219,-0.3125 0.49219,-0.3125 0.55078,-0.23828 0.38281,-0.43359 0.38281,-0.43359 0.75781,-0.86328 0.42188,-0.35938 0.42188,-0.35938 1.2617,-1.1172 0.39453,-0.40625 0.39453,-0.40625 0.76953,-0.82812 -0.15625,0.13281 -0.0977,0.0703 -0.16797,0.12109 -0.22656,0.19141 -0.45703,0.38281 -0.67187,0.58984 -0.10938,0.10156 -0.20703,0.21094 -0.43359,0.41406 z"
           id="path1542"
           style="fill:#666666;stroke-width:47.6839;stroke-miterlimit:4;stroke-dasharray:none" /><path
           d="m 151.85,284.36 c -0.13281,-0.0859 -0.13281,-0.0859 -0.26562,-0.15625 -0.0703,0.625 -0.0703,0.625 -0.13281,1.2461 0.37109,0.25391 0.50391,0.42188 0.61328,0.70703 0.0977,-0.21484 0.15625,-0.37109 0.32422,-0.74219 0.30078,-0.48047 0.30078,-0.48047 0.28906,-0.49219 -0.0703,-0.0469 -0.0703,-0.0469 -0.48047,0.37109 -0.0117,-0.69141 -0.0117,-0.69141 -0.34766,-0.93359 z"
           id="path1544"
           style="fill:#666666;stroke-width:47.6839;stroke-miterlimit:4;stroke-dasharray:none" /><path
           d="m 272.17,1046.7 c -0.39453,-0.4336 -0.39453,-0.4336 -1.2344,-1.2109 0.46875,0.3125 0.46875,0.3125 0.9375,0.6484 -0.39453,-0.3945 -0.39453,-0.3945 -0.80469,-0.7929 -0.50391,-0.2656 -0.50391,-0.2656 -1.0078,-0.5274 -0.86328,-0.7304 -0.86328,-0.7304 -1.7148,-1.4648 -0.85156,-0.7422 -0.85156,-0.7422 -1.7031,-1.5 0.81641,0.7696 0.81641,0.7696 1.1875,1.2109 0.88672,0.7305 0.88672,0.7305 1.3203,1.0938 0.35938,0.4336 0.35938,0.4336 0.74219,0.8633 -0.43359,-0.3359 -0.43359,-0.3359 -0.43359,-0.3711 -0.0469,0.07 0.0703,0.1914 0.26562,0.3946 0.69531,0.539 1.3789,1.1055 2.0742,1.6445 0.22656,0.074 0.3125,0.098 0.37109,0.012 z"
           id="path1546"
           style="fill:#666666;stroke-width:47.6839;stroke-miterlimit:4;stroke-dasharray:none" /><path
           d="m 215.9,196.7 c -0.0234,0.0352 -0.0352,0.0352 -0.0586,0.0703 0.0117,0.0117 0.0117,0.0117 0.0234,0.0234 0.42187,-0.39453 0.42187,-0.39453 0.80469,-0.79297 0.15625,0.15625 0.15625,0.15625 0.33594,0.3125 0.0117,0.0234 0.0117,0.0234 0.44531,-0.34766 -0.0469,-0.0234 -0.0469,-0.0234 0.32422,-0.46875 0.48047,-0.33594 0.48047,-0.33594 1.3203,-1.0781 l 0.25391,0.25391 c 0.39453,-0.42188 0.39453,-0.42188 0.39453,-0.42188 -0.0586,-0.0586 -0.0586,-0.0586 0.28906,-0.51562 0.0117,0.0234 0.0117,0.0234 0.44531,-0.32422 0.81641,-0.76953 0.81641,-0.76953 1.6328,-1.5703 2.4727,-2.3164 2.4727,-2.3164 4.5117,-4.2461 0.78125,-0.82812 0.78125,-0.82812 1.1641,-1.2461 0.81641,-0.76953 0.81641,-0.76953 1.2461,-1.1406 -0.86328,0.73047 -0.86328,0.73047 -1.3086,1.0781 -0.39453,0.40625 -0.39453,0.40625 -0.80469,0.82813 -0.78125,0.78125 -0.78125,0.78125 -1.5703,1.5703 -0.44531,0.38281 -0.44531,0.38281 -0.86328,0.73047 -1.2227,1.1875 -1.2227,1.1875 -2.4258,2.3984 -0.85156,0.74219 -0.85156,0.74219 -1.7148,1.4883 -0.0117,-0.0117 -0.0117,-0.0117 -0.0351,-0.0586 -0.0234,-0.0234 -0.0234,-0.0234 -0.46875,0.34766 0.0117,0.0117 0.0117,0.0117 -0.38281,0.42188 -0.52734,0.26562 -0.52734,0.26562 -1.043,0.53906 1.2109,-1.1875 1.2109,-1.1875 2.0156,-1.9922 0.39453,-0.39453 0.39453,-0.39453 0.78125,-0.81641 -0.42188,0.39453 -0.42188,0.39453 -1.2227,1.1875 -0.42188,0.37109 -0.42188,0.37109 -0.83984,0.74219 0.0703,-0.0859 0.0703,-0.0977 0.12109,-0.15625 -1.125,1.0742 -2.2773,2.0938 -3.3711,3.1836 z"
           id="path1548"
           style="fill:#666666;stroke-width:47.6839;stroke-miterlimit:4;stroke-dasharray:none" /><path
           d="m 961.67,151.25 c -0.16797,-0.12109 -0.30078,-0.25391 -0.46875,-0.35938 0.13281,0.10938 0.16797,0.13281 0.32422,0.26562 0.0859,0.0586 0.0859,0.0586 0.14453,0.0937 z"
           id="path1554"
           style="fill:#666666;stroke-width:47.6839;stroke-miterlimit:4;stroke-dasharray:none" /><path
           d="m 1040.8,226.18 c -0.07,-0.0352 -0.047,0.0352 -0.2539,-0.14453 -0.035,0.0469 -0.035,0.0469 -0.059,0.0703 -0.1211,0.0859 -0.1211,0.0859 -0.6016,-0.23828 -0.7422,-0.82812 -0.7422,-0.82812 -1.4766,-1.6914 0.024,-0.0469 0.024,-0.0469 0.086,-0.0859 -0.6602,-0.92579 -0.6602,-0.92579 -1.332,-1.83591 0.3242,0.22656 0.457,0.32422 0.6367,0.45703 -1.6562,-1.85939 -3.2266,-3.7812 -4.8828,-5.62889 0.07,0.0976 0.1562,0.1914 0.3008,0.38281 -0.5742,-0.28906 -0.5742,-0.28906 -0.7188,-0.10938 0.4688,0.3125 0.4688,0.3125 1.332,1.0547 0.6836,0.92578 0.6836,0.92578 1.3555,1.8125 -0.059,0.0586 -0.059,0.0586 -0.1211,0.10938 0.6016,0.98437 0.6016,0.98437 0.8399,1.5352 0.7187,0.83984 0.7187,0.83984 1.0664,1.3086 0.6601,0.9375 0.6601,0.9375 0.8867,1.4531 0.2383,0.5625 0.2383,0.5625 0.059,0.71875 -0.7695,-0.81641 -0.7695,-0.81641 -1.1875,-1.2109 1.332,1.8125 1.332,1.8125 2.6758,3.6367 -0.5391,-0.26562 -0.5391,-0.26562 -1.0781,-0.5625 0.9844,1.3906 0.9844,1.3906 1.9688,2.7852 0.2539,0.50391 0.2539,0.50391 0.2031,0.5625 0.6836,0.89844 0.6836,0.89844 1.3672,1.7773 0.4219,1.1172 0.4219,1.1172 0.8398,2.2578 0.2032,-0.20312 0.2032,-0.20312 0.4454,-0.38281 -0.254,-0.55078 -0.254,-0.55078 -0.4805,-1.0781 0.539,0.3125 0.539,0.3125 1.043,0.60156 -1.5,-1.6914 -1.5,-1.6914 -2.9531,-3.3945 -0.2383,-0.55078 -0.2383,-0.55078 -0.4688,-1.0781 1.0312,0.57422 1.0312,0.57422 2.0898,1.1758 0.086,-0.0586 0.086,-0.0586 0.5274,0.30078 -0.3242,-0.46875 -0.3242,-0.46875 -0.6953,-0.92578 0.2539,-0.16797 0.2539,-0.16797 0.047,-0.75781 -0.7304,-0.88672 -0.7304,-0.88672 -1.4023,-1.7773 0.7422,0.81641 0.7422,0.81641 1.5234,1.668 0.086,-0.0703 0.086,-0.0703 0.1797,-0.14453 -0.3359,-0.48047 -0.3359,-0.48047 -0.6367,-0.96094 0.098,-0.0859 0.1211,-0.10938 0.168,-0.15625 -0.418,-0.50781 -0.8594,-1 -1.293,-1.5039 z"
           id="path1556"
           style="fill:#666666;stroke-width:47.6839;stroke-miterlimit:4;stroke-dasharray:none" /><path
           d="m 272.95,147.11 c 1.4414,-0.9375 1.4414,-0.9375 2.8672,-1.8477 0.52734,-0.23828 0.52734,-0.23828 1.0664,-0.44531 0.50391,-0.28906 0.50391,-0.28906 1.4414,-0.91016 0.46875,-0.32422 0.46875,-0.32422 0.48047,-0.3125 -0.0234,-0.0352 -0.0234,-0.0352 0.38281,-0.42188 -0.96094,0.60156 -0.96094,0.60156 -1.4531,0.86328 -0.0703,-0.0703 -0.0703,-0.0703 -0.13281,-0.14453 -0.51562,0.23828 -0.51562,0.23828 -1.4766,0.83984 -0.49219,0.32422 -0.74219,0.50391 -1.0547,0.71875 -0.75781,0.5625 -1.4766,1.1758 -2.2305,1.7539 0.0352,-0.0469 0.0586,-0.0586 0.10938,-0.0937 z"
           id="path1558"
           style="fill:#666666;stroke-width:47.6839;stroke-miterlimit:4;stroke-dasharray:none" /><path
           d="m 268.99,150.29 c 0.45703,-0.32422 0.45703,-0.32422 0.9375,-0.625 0.44531,-0.37109 0.44531,-0.37109 0.42187,-0.38281 -0.0234,-0.0469 -0.10937,-0.0117 -0.33594,0.12109 -0.37109,0.27734 -0.73047,0.57422 -1.1055,0.86328 0.0352,0 0.0586,0 0.082,0.0234 z"
           id="path1560"
           style="fill:#666666;stroke-width:47.6839;stroke-miterlimit:4;stroke-dasharray:none" /><path
           d="m 256.07,160.38 c -0.0977,0.0586 -0.0977,0.0703 -0.17969,0.12109 -0.0703,0.0586 -0.14453,0.10938 -0.21484,0.16797 0.13281,-0.0977 0.19141,-0.13281 0.39453,-0.28906 z"
           id="path1562"
           style="fill:#666666;stroke-width:47.6839;stroke-miterlimit:4;stroke-dasharray:none" /></g><path
         d="m 70.540314,170.82412 c -0.0059,0.004 -0.01336,0.006 -0.02286,0.004 0.0088,-1.6e-4 0.01622,-0.002 0.02286,-0.004 z m 4.55261,-4.9725 h -2.19e-4 l -0.0013,-0.001 c 4.38e-4,5.3e-4 9.79e-4,0.001 0.0015,0.001 z m 3.903864,18.40455 c -0.0023,3.3e-4 -0.0035,0.002 -0.0055,0.003 l 5.47e-4,-0.008 c 0.0015,0.002 0.0035,0.003 0.005,0.005 z m 4.104341,-17.87728 c 0.03863,0.0404 0.08601,0.0366 0.136628,0.0149 0.0937,-0.0402 0.146436,-0.0224 0.20121,0.0598 0.0212,0.0324 0.04896,0.0638 0.08472,0.0724 0.07725,0.0185 0.13776,0.0738 0.20936,0.0964 0.210421,0.0659 0.385828,0.19954 0.584546,0.28759 0.105319,0.0468 0.216371,0.0718 0.309926,0.16696 0.08163,0.0825 0.219461,0.12825 0.348843,0.15036 0.145153,0.0554 0.237654,0.2049 0.403771,0.22242 0.0051,5.2e-4 0.01071,0.006 0.01358,0.0103 0.03387,0.0557 0.09001,0.0974 0.118748,0.15248 0.02821,0.0539 0.06579,0.0791 0.114825,0.10622 0.04549,0.0252 0.100039,0.0354 0.113393,0.11453 0.01743,0.10343 0.08804,0.13662 0.166354,0.11362 0.121389,-0.0358 0.148774,-0.0113 0.124406,0.11354 -0.005,0.025 -0.01705,0.0688 0.01124,0.0665 0.0943,-0.008 0.119352,0.0716 0.164768,0.11921 0.05877,0.062 0.123805,0.12523 0.143947,0.21312 0.01192,0.0524 0.04844,0.0773 0.08284,0.11286 0.07703,0.0795 0.187705,0.11544 0.253878,0.20407 0.03086,0.0411 0.0977,0.0229 0.112712,0.0702 0.01901,0.0603 0.06466,0.0958 0.112185,0.11385 0.07386,0.0288 0.09325,0.10577 0.153304,0.14463 0.02747,0.0179 0.03438,0.0573 0.03823,0.0939 0.0078,0.0747 0.07748,0.1226 0.09038,0.19827 0.0043,0.0253 0.03891,0.0278 0.0676,0.0182 0.02239,-0.008 0.04374,-0.001 0.03726,0.0284 -0.01389,0.064 0.04044,0.0852 0.07348,0.11709 0.0965,0.0932 0.165001,0.20793 0.218553,0.32584 0.03879,0.0848 0.07085,0.16877 0.138671,0.23426 0.01566,0.0212 0.04955,0.018 0.05494,0.0586 0.01089,0.0904 0.02985,0.18106 0.129764,0.22293 0.01517,0.007 0.0304,0.0271 0.0227,0.0433 -0.04613,0.097 0.02722,0.14409 0.08186,0.19697 0.04557,0.0448 0.07092,0.10857 0.05738,0.15799 -0.01584,0.0572 0,0.0897 0.03224,0.12274 0.03756,0.0393 0.06217,0.085 0.07001,0.13701 0.0087,0.0559 0.04209,0.0873 0.08012,0.12554 0.07167,0.0718 0.156472,0.14583 0.116103,0.27023 -0.0049,0.016 0.0067,0.0395 0.01517,0.0571 0.02007,0.042 0.02172,0.0843 6.11e-4,0.12509 -0.02533,0.0497 -0.01389,0.0845 0.03921,0.10064 0.05365,0.0164 0.0633,0.0521 0.07069,0.10441 0.01015,0.0708 -0.01554,0.14998 0.0405,0.21373 0.0575,0.0648 0.09008,0.14296 0.110219,0.22648 6.12e-4,3.3e-4 6.12e-4,0.001 0.0018,0.001 -0.0043,0.002 -0.0074,0.004 -0.01224,0.01 -0.01805,0.044 3.31e-4,0.0838 0.01266,0.12606 0.03878,0.13196 0.107582,0.25539 0.104414,0.40001 -0.0012,0.069 0.02288,0.13422 0.07046,0.19155 0.116715,0.14025 0.174127,0.29643 0.105171,0.47908 -0.0061,0.0157 0.0012,0.0354 -0.0024,0.052 -0.02239,0.0951 0.05891,0.17111 0.04557,0.26919 -0.0073,0.0526 -0.01431,0.10819 -0.01517,0.16296 -0.0031,0.17805 0.02783,0.35172 0.06926,0.52336 0.0075,0.0316 0.01719,0.0632 0.0055,0.0939 -0.02588,0.067 -0.01101,0.12977 0.0081,0.1954 0.02722,0.0935 0.0334,0.18491 -0.02367,0.27605 -0.04239,0.0673 -0.04912,0.14462 -0.02337,0.22595 0.02374,0.0739 0.04747,0.15179 0.01444,0.22966 -0.03273,0.0776 -0.03628,0.15843 -0.02998,0.23961 0.0055,0.076 -0.0037,0.15012 -0.01046,0.22527 -0.01652,0.18453 -0.04912,0.36771 -0.0523,0.5536 0.0031,0.006 0.008,0.009 0.01168,0.0151 -0.0078,0.0121 -0.0197,0.0234 -0.02221,0.0365 -0.03524,0.18884 -0.119578,0.36455 -0.148324,0.55511 -0.0043,0.0263 -0.01419,0.0478 -0.02722,0.0709 -0.05659,0.10389 -0.08284,0.22029 -0.09015,0.33506 -0.0043,0.0684 -0.01431,0.12908 -0.04625,0.18785 -0.04264,0.0785 -0.07718,0.15979 -0.103208,0.24565 -0.03077,0.10087 -0.03524,0.21546 -0.09657,0.30056 -0.09031,0.12546 -0.133911,0.27288 -0.212215,0.40278 -0.01639,0.0269 -0.02135,0.056 -0.0084,0.0905 0.03493,0.0936 0.0092,0.1785 -0.04735,0.25705 -0.02404,0.0332 -0.05231,0.0619 -0.08789,0.0824 -0.03719,0.0217 -0.06443,0.0505 -0.07212,0.0937 -0.0084,0.047 -0.02906,0.0857 -0.06911,0.11354 -0.0164,0.0116 -0.0301,0.0289 -0.02973,0.0513 0.0018,0.1094 -0.08389,0.16983 -0.139497,0.24701 -0.02851,0.0711 -0.0639,0.1364 -0.131874,0.17986 -0.0094,0.006 -0.0055,0.033 -0.0094,0.0495 -0.0055,0.0226 -0.0082,0.0601 -0.02074,0.0641 -0.08585,0.0272 -0.09551,0.11308 -0.142439,0.16899 -0.07567,0.0911 -0.127042,0.19676 -0.223086,0.27891 -0.119432,0.10306 -0.211622,0.23999 -0.327193,0.35382 -0.139577,0.13799 -0.278701,0.27439 -0.436146,0.39111 -0.02875,0.0217 -0.05915,0.042 -0.100038,0.0478 -0.121918,0.0177 -0.243449,0.0382 -0.36356,0.0656 -0.148097,0.0331 -0.29038,0.092 -0.442707,0.10856 -0.004,0.002 -0.0078,0.004 -0.01154,0.006 0.0025,-0.005 0.0044,-0.0102 0.007,-0.0149 -0.04625,-0.0239 -0.09649,-0.0109 -0.144777,-0.0138 -0.05975,-0.003 -0.107885,0.0379 -0.167863,0.0391 -0.1149,0.002 -0.177293,0.0596 -0.201518,0.18212 -0.06549,-0.053 -0.115957,-0.0516 -0.137309,0.0391 -0.0035,0.0132 -0.01856,0.0227 -0.03237,0.0276 -0.115882,0.0427 -0.153001,0.15179 -0.203778,0.24745 -0.02256,0.0423 -0.03373,0.0944 0.01637,0.1333 0.0012,4.4e-4 0.002,0 0.0032,4.4e-4 -0.02685,0.0573 -0.0255,0.11475 3.83e-4,0.17217 3.29e-4,0.0116 4.38e-4,0.0229 9.79e-4,0.0346 0.0013,0.0699 0.02739,0.13807 0.01637,0.20921 -0.02377,0.0571 -0.02791,0.12893 -0.0765,0.16786 -0.09604,0.0763 -0.191853,0.15247 -0.30894,0.19999 -0.08533,0.0349 -0.161828,0.0909 -0.242484,0.13746 -0.136477,0.074 -0.285938,0.12961 -0.383105,0.26133 -0.06745,0.0122 -0.109846,0.0623 -0.157829,0.10427 -0.06345,-0.001 -0.127727,-0.004 -0.173521,0.0525 -0.05726,0.0424 -0.132026,0.0207 -0.192155,0.0524 -0.05749,0.009 -0.118899,-0.0177 -0.173371,0.0182 0.004,0.0289 -0.01049,0.0499 -0.02535,0.0711 -0.007,-0.001 -0.01426,-0.002 -0.02173,-3.3e-4 -0.05394,0.0376 -0.109921,0.0626 -0.179708,0.0618 -0.04089,0 -0.09536,0.006 -0.121086,0.0402 -0.05327,0.0696 -0.1232,0.0663 -0.196382,0.0655 -0.142136,-0.002 -0.291732,-0.0443 -0.40997,0.0782 -6.73e-4,0.001 -0.004,0.002 -0.0084,0.002 -0.108715,-0.006 -0.209728,0.0388 -0.317478,0.042 -0.193062,0.006 -0.380092,0.0753 -0.575933,0.0571 -0.01992,-0.002 -0.03795,0.0159 -0.05726,0.0189 -0.120409,0.0183 -0.243834,0.002 -0.363405,0.0327 -0.01237,0.003 -0.02754,-0.008 -0.04142,-0.0117 -0.04874,-0.0133 -0.10019,-0.0197 -0.146286,-0.001 -0.06564,0.0245 -0.132254,0.0117 -0.198042,0.0191 -0.04376,0.005 -0.08239,-0.0259 -0.127953,-0.0191 -0.187856,0.0268 -0.378045,-0.052 -0.565986,0.0136 -0.02685,0.009 -0.05477,-0.0152 -0.08261,-0.0224 -0.09385,-0.0251 -0.186195,-0.0703 -0.287445,-0.0258 -0.02422,0.011 -0.05123,0.004 -0.07695,-0.003 -0.221122,-0.0593 -0.448443,-0.0859 -0.671825,-0.13293 -0.07937,-0.0169 -0.163335,0.0191 -0.238852,-0.0272 -0.04557,-0.0277 -0.09679,-0.0388 -0.149906,-0.0394 -0.206424,-0.004 -0.400159,-0.051 -0.578501,-0.15768 -0.04745,-0.0279 -0.09989,-0.0464 -0.154811,-0.0574 -0.19586,-0.0385 -0.370725,-0.14763 -0.571104,-0.1717 -0.02558,-0.002 -0.04881,-0.0175 -0.07099,-0.0319 -0.118371,-0.0748 -0.251521,-0.10351 -0.387778,-0.11785 -0.05945,-0.006 -0.110223,-0.0162 -0.15783,-0.059 -0.06707,-0.0596 -0.121917,-0.0468 -0.173294,0.0291 -0.01056,0.0159 -0.02588,0.0217 -0.03961,0.0317 -0.104566,0.0743 -0.218109,0.0486 -0.328177,0.0266 -0.09114,-0.0182 -0.192156,-0.0314 -0.221875,-0.14847 -0.0061,-0.0253 -0.03206,-0.0404 -0.05145,-0.0578 -0.06979,-0.0619 -0.103735,-0.14297 -0.101698,-0.23192 0.0017,-0.0703 -0.02791,-0.0871 -0.08865,-0.10071 -0.09619,-0.0206 -0.189439,-0.0692 -0.251386,-0.13995 -0.04957,-0.056 -0.09868,-0.10419 -0.162808,-0.13648 -0.06662,-0.0327 -0.111355,-0.0837 -0.13761,-0.15029 -0.02837,-0.0736 -0.07816,-0.10939 -0.15813,-0.11301 -0.07771,-0.004 -0.141608,-0.0446 -0.173371,-0.11309 -0.02791,-0.0611 -0.0673,-0.0875 -0.129915,-0.0991 -0.06594,-0.0119 -0.142815,-0.0305 -0.168467,-0.0939 -0.02776,-0.0677 -0.07371,-0.11453 -0.118296,-0.16681 -0.03772,-0.0436 -0.07529,-0.0883 -0.10298,-0.13995 -0.06564,-0.12154 -0.145304,-0.22979 -0.270777,-0.29643 -0.01336,-0.007 -0.02414,-0.015 -0.02988,-0.0299 -0.06828,-0.17186 -0.208221,-0.2759 -0.35738,-0.36976 -0.06443,-0.0401 -0.12139,-0.0785 -0.151415,-0.15783 -0.03176,-0.0828 -0.08073,-0.15896 -0.09053,-0.25115 -0.003,-0.0307 -0.01788,-0.0634 -0.04345,-0.0837 -0.138212,-0.11188 -0.149907,-0.29423 -0.24059,-0.43388 -0.0473,-0.0721 -0.08299,-0.15345 -0.15217,-0.20687 -0.04979,-0.0388 -0.06979,-0.0817 -0.06564,-0.14145 0.0042,-0.0585 -0.0175,-0.10337 -0.06095,-0.14577 -0.08397,-0.0825 -0.130592,-0.18823 -0.165674,-0.2998 -0.04557,-0.14357 -0.101321,-0.28472 -0.169446,-0.41796 -0.05326,-0.10419 -0.09001,-0.22045 -0.178877,-0.30593 -0.02339,-0.0223 -0.01554,-0.0605 -0.01818,-0.0919 -0.0027,-0.0333 0.0075,-0.072 -0.03342,-0.0915 -0.0023,0.002 -0.0046,0.004 -0.0072,0.005 v -1.6e-4 c -0.04074,-0.0486 -0.0082,-0.10721 -0.02105,-0.15949 -0.03289,-0.13225 -0.08616,-0.25635 -0.108714,-0.39442 -0.02791,-0.17201 -0.164467,-0.32065 -0.136629,-0.5122 3.78e-4,-0.002 -0.0026,-0.006 -0.0032,-0.008 -0.03387,-0.11822 -0.02972,-0.24233 -0.05145,-0.36153 -0.0175,-0.0966 -3.02e-4,-0.19524 -0.03704,-0.29212 -0.01569,-0.0412 -0.0768,-0.0603 -0.05274,-0.12554 0.0335,-0.0883 0.02437,-0.18069 -0.04496,-0.25183 -0.04293,-0.0443 -0.04639,-0.0787 -0.01049,-0.12727 0.03622,-0.0498 0.05945,-0.10238 0.0212,-0.16666 -0.01456,-0.0245 -0.0075,-0.0625 -0.0075,-0.0941 3.78e-4,-0.0546 -0.0018,-0.10554 -0.02934,-0.15821 -0.04979,-0.095 -0.05334,-0.20152 -0.02142,-0.3026 0.02776,-0.0868 0.01871,-0.16877 -0.01939,-0.24399 -0.05107,-0.10049 -0.03486,-0.19849 -0.02331,-0.30237 0.01268,-0.11627 0.0599,-0.2225 0.06828,-0.34321 0.01086,-0.15768 -0.03373,-0.32215 0.03893,-0.47529 0.0098,-0.0207 -0.0055,-0.0454 -0.01773,-0.0653 -0.02105,-0.0346 -0.04127,-0.07 -0.06496,-0.10275 -0.01788,-0.0253 -0.01652,-0.0486 0.01336,-0.0527 0.116032,-0.0149 0.108187,-0.0989 0.106905,-0.18122 -0.0017,-0.0785 0.0046,-0.14824 0.07009,-0.21177 0.04964,-0.0478 0.07401,-0.11807 0.05749,-0.19955 -0.01252,-0.0607 -0.01252,-0.13104 0.02135,-0.18838 0.05681,-0.0963 0.09136,-0.20521 0.08887,-0.30941 -0.0027,-0.0977 0.04006,-0.15284 0.08834,-0.22226 0.0387,-0.0561 0.09649,-0.10509 0.09649,-0.1877 0,-0.13648 0.07295,-0.25855 0.08872,-0.39329 0.004,-0.0337 0.02769,-0.0785 0.05575,-0.0934 0.06564,-0.0342 0.07899,-0.0915 0.09619,-0.1521 0.02769,-0.0992 0.04708,-0.20295 0.09068,-0.29492 0.06043,-0.12758 0.166129,-0.22995 0.220214,-0.36311 0.01071,-0.0252 0.0381,-0.0363 0.05213,-0.0554 0.04444,-0.06 0.133762,-0.076 0.153678,-0.15586 0.02633,-0.10532 0.05839,-0.20091 0.135271,-0.28836 0.04904,-0.0557 0.07363,-0.13632 0.140551,-0.18393 0.0062,-0.004 0.0095,-0.0146 0.01154,-0.023 0.01637,-0.0703 0.06594,-0.11272 0.122597,-0.14998 0.02875,-0.0165 0.0461,-0.0401 0.05462,-0.0735 0.0051,-0.021 0.01886,-0.0539 0.03357,-0.0567 0.129084,-0.0247 0.161449,-0.14711 0.231917,-0.22844 0.05228,-0.0595 0.08782,-0.13315 0.131123,-0.20045 0.08495,-0.1017 0.188157,-0.18869 0.245495,-0.31196 -10e-4,-0.009 0.0021,-0.02 0.0062,-0.0307 -2.24e-4,0.0102 -0.0044,0.0207 -0.0062,0.0307 0.06496,-0.0191 0.139723,-0.0191 0.179028,-0.0885 0.02067,-0.0363 0.06141,-0.0526 0.08412,-0.0788 0.06662,-0.0771 0.124407,-0.16145 0.203547,-0.22761 0.0049,-0.004 0.0022,-0.0165 0.0029,-0.0252 0.08065,-0.0643 0.160997,-0.12872 0.241498,-0.19284 0.121766,-0.12795 0.254708,-0.24256 0.40265,-0.33905 0.04942,-0.0322 0.09151,-0.0748 0.120183,-0.1226 0.07869,-0.13089 0.214266,-0.19835 0.321843,-0.29588 0.125915,-0.11423 0.301775,-0.16998 0.389749,-0.33285 0.01102,-0.0201 0.05115,-0.0372 0.07582,-0.035 0.111582,0.0106 0.169371,-0.0732 0.244144,-0.1281 0.0064,-0.005 0.01237,-0.0106 0.01856,-0.0155 0.03244,-0.011 0.06481,-0.0212 0.09989,-0.0202 0.03319,6.1e-4 0.07077,0.006 0.08669,-0.0368 h -3.83e-4 1.64e-4 c 0.01275,-0.0116 0.02527,-0.0229 0.0378,-0.0343 0.10268,-0.065 0.221277,-0.10735 0.29687,-0.21086 0.02293,0.003 0.03546,-0.0152 0.05296,-0.0237 0.07982,-0.0398 0.129765,-0.14206 0.241653,-0.11618 0.0085,0.002 0.01969,-0.0104 0.03002,-0.0152 0.105093,-0.0516 0.222629,-0.0785 0.314832,-0.15549 0.05794,-0.0481 0.130592,-0.0463 0.197732,-0.0628 0.0098,1.5e-4 0.02067,-0.002 0.03289,-0.009 l 3.29e-4,-3.8e-4 c 0.04843,-0.0318 0.111279,0.006 0.158356,-0.0332 0.04255,-0.0444 0.09536,-0.0603 0.155641,-0.0544 0.02769,-0.006 0.05462,-0.0215 0.07695,-0.0346 0.07997,-0.0465 0.174728,-0.0275 0.255828,-0.0668 0.06715,-0.0326 0.142137,-0.0425 0.214942,-0.0592 0.09015,-0.0205 0.217124,0.006 0.244665,-0.13474 0.0029,-0.0133 0.02037,-0.0113 0.0292,-0.004 0.03576,0.032 0.06812,0.0109 0.09219,-0.0117 0.05643,-0.0541 0.114901,-0.0567 0.178199,-0.0182 0.07416,0.0456 0.135422,0.0373 0.202041,-0.0234 0.04376,-0.0401 0.108714,-0.0511 0.171408,-0.0476 0.0467,-0.006 0.09868,0.0366 0.139873,-0.0158 0.116938,6.1e-4 0.233348,-0.0311 0.350735,-0.002 0.04391,0.0109 0.08548,-0.003 0.119579,-0.0343 0.02656,0.0201 0.05711,0.0168 0.08767,0.0174 0.01268,0.005 0.02724,0.009 0.03772,0.009 0.100718,0.0242 0.205729,0.0229 0.298763,-0.004 0.07763,-0.0226 0.15481,-0.0124 0.230624,-0.0281 0.04557,-0.01 0.09838,-0.0359 0.161677,-0.0197 0.08933,0.023 0.186345,0.024 0.27966,0.0417 0.0501,0.009 0.108715,0.0157 0.159715,-0.0146 0.04119,0.002 0.08095,-0.006 0.119503,-0.0195 0.08269,-0.002 0.167183,-10e-4 0.244511,0.0245 0.06209,0.0208 0.121917,0.031 0.185668,0.0291 0.03229,-0.001 0.06065,0.007 0.09136,0.0188 0.07514,0.0275 0.153679,0.0489 0.235685,0.0244 0.04353,-0.0132 0.0805,-1.5e-4 0.1232,0.0172 0.08601,0.035 0.177896,0.0628 0.273558,0.0286 0.04044,-0.003 0.05296,0.0407 0.08563,0.0507 0.0249,0.0129 0.0455,0.0304 0.0765,0.0353 0.102077,0.0158 0.204223,0.0222 0.307125,0.0163 0.01584,0.006 0.03191,0.0129 0.04829,0.0193 0.01116,0.0402 0.04187,0.064 0.07295,0.0875 0.03304,0.0274 0.06662,-0.0119 0.09989,3e-4 -0.0017,0.003 -0.0045,0.004 -0.0059,0.008 -0.0073,0.0599 0.03863,0.0658 0.07816,0.0703 0.04458,0.005 0.08284,0.0133 0.115882,0.0483 z m 2.589379,0.67432 c 0,0 -1.65e-4,0 -1.65e-4,1.5e-4 v -1.5e-4 z m 0.261719,0.15601 h -8.57e-4 c -1.64e-4,-3.7e-4 -5.47e-4,-6.1e-4 -5.47e-4,-10e-4 3.83e-4,5.2e-4 9.78e-4,6.1e-4 0.0013,10e-4 z m 3.155652,9.46697 c -0.0012,-0.002 -0.0024,-0.005 -0.0037,-0.007 0.0024,0.002 0.0049,0.003 0.0069,0.005 -0.0012,6.1e-4 -0.0018,0.002 -0.0031,0.002 z m -1.151419,-7.11804 c 0.0012,10e-4 0.0024,0.002 0.0037,0.004 -0.0012,4.4e-4 -0.0031,0.001 -0.0043,0.002 1.65e-4,-0.002 1.65e-4,-0.003 5.5e-4,-0.006 z m 1.206507,1.26338 c -4.41e-4,-5.5e-4 -0.0012,-6.1e-4 -0.0018,-0.001 5.5e-4,-3.3e-4 0.0012,-6.1e-4 0.0018,-0.001 1.65e-4,6.1e-4 0,0.001 1.65e-4,0.002 z m 0.154356,0.5195 c -0.0012,-3.9e-4 -0.0024,-6.1e-4 -0.0037,-10e-4 1.65e-4,-0.002 5.44e-4,-0.004 6.11e-4,-0.006 0.0012,0.002 0.0012,0.005 0.0024,0.007 z m -0.08834,-0.157 c 3.24e-4,-3.3e-4 6.11e-4,-4.4e-4 0.0012,-6.1e-4 -1.65e-4,5.4e-4 -3.3e-4,3.8e-4 -3.3e-4,6.1e-4 1.65e-4,0 3.3e-4,1.7e-4 4.4e-4,1.7e-4 -3.3e-4,2.1e-4 -4.4e-4,3.8e-4 -6.05e-4,5.4e-4 v -3.3e-4 c -2.21e-4,-2.1e-4 -5.45e-4,-3.8e-4 -6.12e-4,-3.8e-4 z m 0.07031,0.31416 c -6.12e-4,0 -0.0012,-1.7e-4 -0.0018,-1.7e-4 5.45e-4,-3.8e-4 0.0012,-0.001 0.0012,-0.001 0,4.3e-4 1.59e-4,6.1e-4 3.79e-4,0.001 h 0.0012 c -3.31e-4,5.5e-4 -3.31e-4,0.001 -6.06e-4,0.002 -2.2e-4,-5.5e-4 -6.12e-4,-6.1e-4 -6.12e-4,-0.001 z m -0.311814,-0.80243 -0.0024,4.4e-4 c 6.12e-4,-0.001 0.0018,-0.001 0.0024,-0.002 0,6.1e-4 0,0.001 1.65e-4,0.002 z m 0.329989,1.22061 c -5.45e-4,6e-4 -0.0012,0.001 -0.0018,0.002 0,-3.8e-4 3.31e-4,-6.1e-4 3.31e-4,-0.001 1.65e-4,-1.7e-4 0.0012,-0.001 6.12e-4,-0.001 h 3.79e-4 c 0,-1.7e-4 1.65e-4,-1.7e-4 1.65e-4,-3.3e-4 h -1.65e-4 c -2.14e-4,0 3.3e-4,-5.5e-4 1.65e-4,-5.5e-4 v 5.5e-4 z m -0.297102,5.55768 c 0.0012,6.2e-4 0.0024,0.002 0.0037,0.002 l -0.0037,0.001 c 5.51e-4,0.001 0.0012,0.003 0.0012,0.004 -0.0012,-6.1e-4 -0.0018,-0.001 -0.0031,-0.002 6.12e-4,-6.1e-4 6.12e-4,-0.002 0.0018,-0.002 z m -0.800239,1.92851 c 0.0031,4.4e-4 0.0049,0.001 0.0077,0.001 -6.11e-4,0.001 -0.0012,0.002 -0.0024,0.003 -0.0018,-0.001 -0.0031,-0.003 -0.0055,-0.005 z M 72.40805,169.27468 c 6.04e-4,6.1e-4 0.0011,6.1e-4 0.0018,0.001 -6.73e-4,0 -9.79e-4,5.4e-4 -0.0015,5.4e-4 v -5.4e-4 c 1.53e-4,-4.5e-4 -3.01e-4,-6.1e-4 -3e-4,-0.001 z m -1.015859,0.10133 c -0.004,-0.005 -0.0091,-0.0106 -0.01607,-0.0165 0.01086,0.002 0.01569,0.008 0.01607,0.0165 z m 2.846057,-2.91308 c 1.65e-4,-0.002 -5.47e-4,-0.004 -3.83e-4,-0.006 9.18e-4,0.002 0.0015,0.004 0.0026,0.006 -8.57e-4,0 -0.0015,1.5e-4 -0.0022,1.5e-4 z m -3.660706,10.90486 c 1.54e-4,10e-4 6.73e-4,0.002 9.79e-4,0.004 -0.002,-6.1e-4 -0.0033,-0.002 -0.0054,-0.002 0.0017,-4.4e-4 0.0027,-3.3e-4 0.0044,-0.001 z m 0.625723,0.7076 c -9.78e-4,-0.001 -6.72e-4,-0.004 -0.0017,-0.005 h 0.0045 c -0.0013,0.001 -0.0017,0.003 -0.0029,0.005 z m -0.23916,-7.01781 c 0.0039,-0.0105 0.0063,-0.0237 0.0089,-0.0373 0.01886,0.0102 0.01282,0.023 -0.0089,0.0373 z m -0.421134,1.88028 c -6.73e-4,-0.002 1.53e-4,-0.003 -9.79e-4,-0.005 0.0021,-6.1e-4 0.004,-0.001 0.0061,-0.002 -0.0023,0.002 -0.0032,0.005 -0.0051,0.007 z m 0.01487,1.12336 v 1.7e-4 c 0,-1.7e-4 0,-1.7e-4 -1.54e-4,-3.3e-4 h 1.54e-4 z m 0.219769,-0.79209 c -0.0046,0.002 -0.0097,0.003 -0.01501,6.1e-4 0.0046,-4.3e-4 0.01078,0 0.01501,-6.1e-4 z m -0.180538,2.60445 c -1.53e-4,-3.3e-4 0,-6.2e-4 -1.53e-4,-0.001 4.54e-4,3.3e-4 8.56e-4,5.5e-4 0.0012,6.1e-4 -3.01e-4,1.6e-4 -6.73e-4,1.6e-4 -9.79e-4,3.3e-4 z m 0.185367,-2.60657 c -5.26e-4,5.5e-4 -0.0012,5.5e-4 -0.0017,6.1e-4 6.73e-4,-1.7e-4 9.79e-4,-6e-4 0.0017,-6.1e-4 z m -0.0022,-0.3512 c 3.78e-4,-0.003 -1.53e-4,-0.004 -1.53e-4,-0.007 0.0018,0.001 0.0032,6.1e-4 0.0052,0.002 -0.0026,0.001 -0.0029,0.003 -0.0051,0.004 z m -0.669642,0.40279 c -0.0067,-0.006 -0.012,-0.0122 -0.01924,-0.0172 0.0074,0.004 0.01306,0.011 0.01924,0.0172 z m 1.100046,-3.06566 c 0.0032,-0.002 0.0068,-0.005 0.01034,-0.007 -0.0029,0.004 -0.0063,0.006 -0.01034,0.007 z m 0.584991,-1.52684 v 1.6e-4 h -2.24e-4 c 0,0 2.24e-4,0 2.24e-4,-1.6e-4 z m 0.520869,-1.12102 c -0.002,-0.008 0.0018,-0.013 0.0088,-0.0168 -0.0039,0.005 -0.0056,0.011 -0.0088,0.0168 z m -0.489851,1.50428 c 0.0012,-1.6e-4 0.0022,0 0.0034,0 -3.78e-4,10e-4 -0.0015,0.002 -0.0022,0.004 -3.78e-4,-0.001 -10e-4,-0.002 -0.0012,-0.004 z m 0.22566,-0.76403 c 4.55e-4,0.002 0.0015,0.004 0.0018,0.006 -0.0022,-0.002 -0.0039,-10e-4 -0.0062,-0.003 0.0017,-6.1e-4 0.003,-0.002 0.0044,-0.003 z m 0.240146,0.59849 c 0.0013,0.003 0.0017,0.006 0.002,0.009 -3.01e-4,-0.002 -0.0015,-0.006 -0.002,-0.009 z m 1.498081,-0.90592 c -0.0017,0.001 -0.0029,0.002 -0.0043,0.004 -1.53e-4,-0.001 1.53e-4,-0.003 0,-0.004 0.0015,1.5e-4 0.0025,6.1e-4 0.0043,6.1e-4 z m 3.078787,-2.52004 c -1.64e-4,1.5e-4 -5.47e-4,3e-4 -6.73e-4,4.5e-4 v 1.5e-4 c -1.64e-4,0 -1.64e-4,2.3e-4 -3.28e-4,2.3e-4 -3.84e-4,-2.3e-4 -8.56e-4,0 -0.0013,-3.8e-4 9.79e-4,-0.001 0.0022,-0.001 0.003,-0.002 0,6.1e-4 -5.48e-4,0.001 -6.73e-4,0.002 z m 0.586343,-0.0638 c 9.78e-4,-3e-4 0.0018,-3e-4 0.0026,-6.1e-4 1.64e-4,6.1e-4 5.48e-4,6.1e-4 6.73e-4,0.001 -9.79e-4,-1.5e-4 -0.0022,-3.8e-4 -0.0033,-6.1e-4 z m -1.644749,1.4053 c -1.65e-4,-0.002 -10e-4,-0.003 -0.0013,-0.004 0.002,5.3e-4 0.0035,6.2e-4 0.0059,0.001 v 3e-4 c -0.0019,0.001 -0.0029,0.002 -0.0045,0.002 z m 3.603151,-1.77587 c -1.64e-4,-1.5e-4 -3.29e-4,-1.5e-4 -3.29e-4,-3e-4 h 4.38e-4 c 0,1.5e-4 -1.64e-4,1.5e-4 -1.64e-4,3e-4 z m 2.579336,0.45395 c -0.0063,-0.006 -0.01019,-0.0143 -0.01237,-0.0236 0.0035,0.008 0.0078,0.0159 0.01237,0.0236 z m -0.563418,18.99477 c 3.29e-4,0.001 5.48e-4,0.002 8.57e-4,0.004 -0.01501,0.0928 -0.07099,0.13142 -0.151113,0.12652 -0.01992,0.0148 -0.05175,0.0236 -0.102755,0.0227 -0.03976,-3.8e-4 -0.06586,0.011 -0.06518,0.0407 3.28e-4,0.023 0.0513,0.0539 -0.01222,0.0674 -0.06254,0.0129 -0.105319,-0.0211 -0.121918,-0.0504 -0.03297,-0.0577 -0.2476,-0.0799 -0.08699,-0.17707 0.01901,-0.0939 0.190572,-0.13263 0.195995,-0.23425 5.48e-4,-0.0185 0.04277,-0.021 0.07605,-0.0163 -0.0063,-0.003 -0.0129,-0.006 -0.01961,-0.008 -0.04308,-0.0161 -0.08902,-0.0213 -0.11407,-0.0693 -0.0087,-0.0161 -0.03591,-0.0331 -0.05145,-0.0117 -0.07129,0.0975 -0.206946,0.096 -0.280357,0.19365 0.01517,0.0391 0.08344,-0.011 0.09295,0.0461 0.0079,0.0483 -0.01351,0.0912 -0.02354,0.13581 -0.0045,0.0217 -0.0175,0.0486 -0.04753,0.0373 -0.02278,-0.008 -0.05183,-0.0206 -0.03146,-0.0563 0.0013,-0.002 0.0049,-0.007 0.0043,-0.008 -0.04225,-0.0508 -0.0768,-0.11423 -0.130065,-0.14614 -0.02776,-0.0167 -0.04693,0.0681 -0.100265,0.0802 -0.04836,0.0114 -0.07145,0.0494 -0.03116,0.0991 0.0073,0.009 0.01019,0.0229 -0.0035,0.03 -0.01984,0.01 -0.04074,0.007 -0.05643,-0.008 -0.04074,-0.0409 -0.07982,-0.0831 -0.119879,-0.12554 -0.0206,-0.007 -0.04761,-0.0316 -0.06096,-0.004 -0.02255,0.0476 0.03554,0.0574 0.05523,0.0921 -0.05326,0.0354 -0.112865,0.0384 -0.172164,0.0324 -0.05259,-0.005 -0.106677,-0.0165 -0.05711,-0.0908 0.01351,-0.0203 0.01569,-0.0466 -0.0085,-0.0615 -0.02407,-0.0155 -0.04775,-0.0395 -0.07831,-0.0299 -0.02753,0.008 -0.03991,0.0291 -0.02972,0.0615 0.0082,0.0258 -0.01238,0.0431 -0.03056,0.0578 -0.01539,0.0126 -0.03108,0.0223 -0.03622,0.0456 -0.0075,0.0332 0.03719,0.0848 -0.0054,0.0937 -0.094,0.0201 -0.166655,0.10789 -0.275606,0.0794 -0.09581,-0.0246 -0.19555,-0.01 -0.293392,-0.0149 -0.05696,-0.003 -0.109017,0.006 -0.153454,-0.0526 -0.04293,-0.0556 -0.127272,-0.0618 -0.188232,-0.064 -0.09634,-0.003 -0.194334,-0.009 -0.277035,-0.0468 -0.102679,-0.0457 -0.228287,-0.002 -0.316415,-0.0913 -0.0096,-0.01 -0.03629,-0.011 -0.0498,-0.005 -0.160997,0.0745 -0.282771,-0.002 -0.396605,-0.10298 -0.04663,-0.041 -0.09272,-0.0406 -0.143645,-0.0165 -0.116864,0.0548 -0.221721,-0.004 -0.327946,-0.037 -0.02158,-0.007 -0.04127,-0.0272 -0.06284,-0.0113 -0.05538,0.0407 -0.09966,0.0198 -0.1361,-0.024 -0.06964,-0.0831 -0.184537,-0.0902 -0.262318,-0.16017 -0.0384,-0.0342 -0.06579,0.0119 -0.0885,0.0294 -0.110601,0.088 -0.136101,0.0918 -0.25069,0.0129 -0.0048,-0.002 -0.008,-0.009 -0.01336,-0.0105 -0.05311,-0.0203 -0.102377,-0.0902 -0.152471,0.018 -0.03538,0.0765 -0.110072,0.0178 -0.170502,0.0103 -0.152095,-0.0179 -0.22346,-0.17247 -0.36553,-0.2071 -0.04112,-0.01 -0.02422,-0.0596 -0.02708,-0.0927 -0.0028,-0.0298 0.01019,-0.0659 -0.03893,-0.0738 -0.03402,-0.006 -0.06647,-0.023 -0.08744,0.0237 -0.01426,0.0313 -0.03561,0.0257 -0.06315,0.007 -0.06194,-0.0419 -0.147116,-0.0251 -0.194565,0.033 -0.04006,0.0495 -0.139422,0.0369 -0.162129,-0.022 -0.01358,-0.0354 -0.02791,-0.0681 -0.05628,-0.0957 -0.0768,-0.0736 -0.08435,-0.18205 -0.128784,-0.27258 -0.01335,-0.0269 -0.01071,-0.0622 -0.01916,-0.0923 -0.02791,-0.10253 -0.0593,-0.11535 -0.153302,-0.0711 -0.03493,0.0166 -0.08088,0.0608 -0.108715,0.0261 -0.02746,-0.0337 -0.0513,-0.0914 -0.0126,-0.14281 0.01509,-0.0204 0.01388,-0.0402 0.0039,-0.0648 -0.04519,-0.11204 -0.08782,-0.22512 -0.131424,-0.33783 l 2.19e-4,-1.7e-4 c -0.02309,-0.0194 -0.01456,-0.0608 -0.05078,-0.0714 -0.02505,-0.0243 -0.05394,-0.0565 -0.08171,-0.007 -0.03538,0.0629 -0.07695,0.0424 -0.113241,0.009 -0.03373,-0.0301 -0.05621,-0.0351 -0.09566,-0.007 -0.06496,0.0464 -0.140929,0.0214 -0.17835,-0.0508 -0.0055,-0.01 -0.005,-0.0279 -0.01237,-0.0317 -0.08518,-0.0409 -0.0771,-0.1192 -0.08352,-0.19404 -0.0026,-0.0313 -0.03116,-0.0456 -0.06322,-0.0497 -0.07786,-0.01 -0.147793,-0.0258 -0.181215,-0.11505 -0.01207,-0.0329 -0.02339,-0.051 -0.0015,-0.0829 0.02105,-0.0308 0.0062,-0.0613 -0.02188,-0.0837 -0.03138,-0.0243 -0.04859,0.003 -0.06496,0.021 -0.02603,0.0289 -0.05711,0.0357 -0.09385,0.0346 -0.07401,-0.002 -0.09249,0.0339 -0.06548,0.0994 0.01207,0.0294 0.02626,0.0581 0.0344,0.0892 0.01373,0.0511 -0.03757,0.0611 -0.0636,0.0783 -0.03191,0.0205 -0.03561,-0.0175 -0.04843,-0.0398 -0.03206,-0.0556 -0.04474,-0.12003 -0.08601,-0.17187 -0.0381,-0.0482 8.56e-4,-0.0726 0.04142,-0.0888 0.101848,-0.0409 0.112865,-0.085 0.04444,-0.17089 -0.03229,-0.0409 -0.04994,-0.0855 -0.01622,-0.13572 0.02572,-0.0392 0.0061,-0.0757 -0.01924,-0.10102 -0.02618,-0.0269 -0.06345,-0.0428 -0.103208,-0.0184 -0.01464,0.009 -0.03018,0.0157 -0.04557,0.0239 -0.06292,0.0329 -0.114373,0.0523 -0.09483,-0.0578 0.01237,-0.0671 -0.06111,-0.077 -0.09385,-0.11309 -0.02988,-0.0327 -0.05666,0.006 -0.08035,0.0239 -0.01856,0.0147 -0.0424,0.0363 -0.06043,0.0155 -0.07869,-0.0899 -0.200071,-0.14545 -0.227998,-0.2774 -0.0035,-0.0154 -0.0065,-0.0303 0.0075,-0.0385 0.01335,-0.008 0.02739,-0.002 0.04021,0.006 0.02241,0.0152 0.03742,0.0505 0.07288,0.0317 0.01532,-0.008 0.01403,-0.0281 0.004,-0.0382 -0.02474,-0.0256 -0.0421,-0.0785 -0.0842,-0.0607 -0.07514,0.0326 -0.08065,-0.0245 -0.10049,-0.0654 -0.01275,-0.0261 -0.02022,-0.0601 -0.05832,-0.0511 -0.0421,0.009 -0.01969,0.0382 -0.01418,0.0622 0.0061,0.0269 -0.0056,0.051 -0.03191,0.0527 -0.05628,0.003 -0.100341,0.0202 -0.125238,0.0758 -0.007,0.0157 -0.02474,0.009 -0.03689,-6.2e-4 -0.01358,-0.0111 -0.02761,-0.0307 -0.04127,-0.0302 -0.09001,6.1e-4 -0.09302,-0.0433 -0.05794,-0.11376 -0.04512,0.0343 -0.112261,0.0275 -0.127953,0.0972 -0.0056,0.0257 -0.03553,0.035 -0.05741,0.0249 -0.05379,-0.0252 -0.09016,0.0293 -0.139421,0.0248 -0.0209,-0.001 -0.02339,0.0229 -0.01675,0.0409 0.0085,0.022 0.01803,0.0456 0.0051,0.067 -0.01939,0.0324 -0.01939,0.095 -0.0688,0.0868 -0.05145,-0.008 -0.0166,-0.0556 -0.01358,-0.0868 0.0035,-0.0334 -0.01351,-0.059 -0.04188,-0.0692 -0.0381,-0.0136 -0.08284,-0.0214 -0.11543,0.009 -0.02218,0.0203 -0.04406,0.0468 -0.04723,0.0805 -3.79e-4,0.005 0.0045,0.0144 0.007,0.0149 0.149304,0.009 0.01336,0.11558 0.05508,0.16749 0.01954,0.0239 -0.02203,0.055 -0.0596,0.051 -0.0439,-0.005 -0.09521,-0.0149 -0.0897,-0.0715 0.004,-0.0447 -0.0058,-0.0591 -0.04572,-0.0748 -0.04263,-0.0165 -0.06111,-0.0563 -0.03078,-0.0994 0.01909,-0.0268 0.01607,-0.0442 -0.0048,-0.0675 -0.02399,-0.0275 -0.04557,-0.0243 -0.07582,-0.0116 -0.09249,0.041 -0.09981,0.0351 -0.129536,-0.0629 -0.01441,-0.0475 -0.03108,-0.0938 -0.05115,-0.13844 -0.01,-0.0226 -0.02972,-0.0556 -0.05809,-0.0392 -0.09649,0.0533 -0.08902,-0.0293 -0.09317,-0.0747 -0.0046,-0.0533 -0.02459,-0.0926 -0.06812,-0.11233 -0.146664,-0.0668 -0.19276,-0.21931 -0.289627,-0.32818 -0.03636,-0.0409 -0.03002,-0.0992 -0.05123,-0.14545 -0.05643,-0.12305 -0.151793,-0.21729 -0.246171,-0.31099 -0.02323,-0.0227 -0.05092,-0.0382 -0.03976,-0.0783 0.0096,-0.0332 -0.01848,-0.0544 -0.03523,-0.0755 -0.06677,-0.0855 -0.109997,-0.17985 -0.129386,-0.28759 -0.0089,-0.0483 -0.04776,-0.0848 -0.08231,-0.12011 -0.06601,-0.0678 -0.112411,-0.14139 -0.109091,-0.24498 0.0035,-0.10305 -0.08216,-0.17352 -0.124256,-0.26013 -0.02188,-0.0455 -0.05228,-0.086 -0.06692,-0.13716 -0.01358,-0.0468 -0.03078,-0.098 -0.06247,-0.13256 -0.05092,-0.0544 -0.07318,-0.10856 -0.04813,-0.18008 0.01124,-0.0321 -0.01614,-0.0471 -0.03402,-0.0644 -0.04663,-0.0449 -0.07733,-0.0917 -0.04912,-0.16167 0.01102,-0.0275 0.01132,-0.0636 -0.01252,-0.091 -0.11543,-0.13059 -0.150662,-0.29422 -0.187706,-0.45688 -0.0069,-0.0305 -0.01524,-0.0648 0.03787,-0.066 0.04677,-0.001 0.05628,-0.0357 0.02995,-0.0644 -0.03629,-0.0385 -0.04044,-0.081 -0.03795,-0.12811 0.0018,-0.0334 -0.01471,-0.0544 -0.04428,-0.0671 -0.06526,-0.0272 -0.08933,-0.0764 -0.104491,-0.14575 -0.02558,-0.1174 -0.08337,-0.22746 -0.0802,-0.35203 3.83e-4,-0.005 -0.002,-0.0124 -0.0055,-0.0162 -0.0845,-0.0942 -0.01365,-0.18936 -0.01335,-0.28503 6.73e-4,-0.12411 0.05764,-0.26692 -0.0427,-0.38417 -0.04594,-0.0533 -0.0049,-0.12719 -0.04014,-0.1825 -0.04444,-0.0695 -0.01569,-0.12192 0.03312,-0.17284 0.01599,-0.0164 0.03871,-0.0451 0.02331,-0.0601 -0.06443,-0.0632 -0.04323,-0.1478 -0.05123,-0.21925 -0.0085,-0.0745 -0.05915,-0.15029 -0.0169,-0.22844 0.02143,-0.0389 -0.0013,-0.0747 -0.008,-0.1094 -0.02286,-0.12425 0.03538,-0.24731 0.0033,-0.37155 -0.0053,-0.0194 0.0037,-0.0494 0.01743,-0.065 0.05538,-0.0641 0.09363,-0.12411 0.01486,-0.19963 -0.02226,-0.0214 0.0088,-0.0464 0.01569,-0.0705 0.01554,-0.0529 0.05794,-0.106 -0.0091,-0.16077 -0.02135,-0.0174 -0.02905,-0.0739 -0.01871,-0.10321 0.04225,-0.11845 0.0094,-0.24451 0.04496,-0.3634 0.02067,-0.0691 -0.04263,-0.12773 -0.03644,-0.20054 0.0095,-0.10977 0.01735,-0.21811 0.09249,-0.30533 0.02821,-0.0325 0.03078,-0.0501 0.0037,-0.0868 -0.06715,-0.0915 -0.05107,-0.18001 0.03855,-0.2495 0.02255,-0.0174 0.03124,-0.0319 0.01471,-0.0571 -0.07582,-0.11438 -0.03538,-0.23275 -0.0092,-0.34983 0.0039,-0.0184 0.02474,-0.0337 0.01675,-0.0556 -0.03772,-0.10457 0.04089,-0.1782 0.07431,-0.26156 0.02271,-0.0567 0.05107,-0.10004 0.0075,-0.15859 -0.04225,-0.0565 -0.0012,-0.0974 0.04761,-0.0945 0.110902,0.007 0.07854,-0.0678 0.06028,-0.10894 -0.03674,-0.0832 -0.05508,-0.15542 0.01403,-0.23057 0.02807,-0.0303 -0.01984,-0.0715 0.01019,-0.11445 0.03742,-0.0535 0.07733,-0.083 0.143118,-0.0742 -0.0032,-0.038 -0.03538,-0.0491 -0.05092,-0.0721 -0.03319,-0.0494 -0.08563,-0.0984 0.0067,-0.1444 0.02701,-0.0137 0.03335,-0.0429 0.02671,-0.076 -0.01667,-0.0816 -0.0013,-0.14463 0.08767,-0.1825 0.04142,-0.0179 0.07031,-0.0538 0.07612,-0.11973 0.0049,-0.0533 0.0097,-0.11423 0.02392,-0.169 0.01584,-0.0626 0.03154,-0.11806 -0.03002,-0.16416 -0.01124,-0.008 -0.02377,-0.0326 -0.01154,-0.0354 0.06481,-0.0157 0.07544,-0.0957 0.138893,-0.11211 0.01893,-0.005 0.04595,-0.0119 0.05281,-0.0259 0.06262,-0.13211 0.221431,-0.161 0.29461,-0.27803 0.04006,-0.0641 0.06473,-0.13829 0.09619,-0.20778 0.0068,-0.0152 0.01132,-0.0399 0.02248,-0.044 0.09385,-0.0346 0.08352,-0.11158 0.08268,-0.18702 -5.25e-4,-0.0321 0.0065,-0.076 0.05213,-0.0485 0.05259,0.031 0.06111,-0.009 0.0885,-0.0334 0.08616,-0.0755 0.06548,-0.19736 0.128405,-0.28193 -0.06345,-0.12207 0.03387,-0.13377 0.107884,-0.18265 0.05892,-0.0391 0.0805,-0.12592 0.03704,-0.20461 -0.01162,-0.0212 -0.01954,-0.0433 6.73e-4,-0.0637 0.02022,-0.0209 0.04331,-0.0154 0.06345,-0.002 0.05062,0.0344 0.09121,0.004 0.125915,-0.0239 0.04014,-0.0314 0.02694,-0.0806 0.01555,-0.12139 -0.02807,-0.10509 0.01607,-0.16854 0.125237,-0.16786 0.04428,1.7e-4 0.05628,-0.0227 0.05583,-0.0591 -3.78e-4,-0.0591 0.01599,-0.0877 0.08382,-0.0651 0.05576,0.0182 0.08284,5.5e-4 0.06028,-0.0661 -0.01433,-0.0418 -0.0069,-0.0857 -0.03387,-0.13044 -0.03493,-0.0579 0.05025,-0.0301 0.0639,-0.0603 -0.0042,-0.0783 0.0221,-0.16115 -0.05454,-0.2258 -0.03124,-0.0262 -0.01102,-0.0613 0.02935,-0.0678 0.0249,-0.004 0.05198,0.001 0.0768,0.007 0.03176,0.007 0.06949,0.0227 0.08857,-0.008 0.02014,-0.0327 -0.02105,-0.0491 -0.04179,-0.064 -0.03402,-0.0242 -0.02369,-0.0501 0.002,-0.0593 0.04677,-0.0168 0.04723,-0.0527 0.05779,-0.0905 0.01252,-0.0433 0.03154,-0.0875 0.08284,-0.10291 0.01087,-0.003 0.02437,-0.008 0.02935,-0.0171 0.07401,-0.11936 0.213956,-0.17601 0.284722,-0.30003 0.02188,-0.0379 0.06398,-0.0655 0.09936,-0.0947 0.03606,-0.0301 0.03795,-0.0648 -1.53e-4,-0.0837 -0.08435,-0.0421 -0.03719,-0.0952 -0.003,-0.12125 0.05228,-0.0398 0.07431,-0.093 0.09657,-0.1465 0.01818,-0.0436 0.03719,-0.0488 0.07861,-0.0351 0.09189,0.03 0.130593,0.002 0.132254,-0.0932 8.57e-4,-0.0622 0.02037,-0.10117 0.08917,-0.10087 0.01954,0 0.05477,-0.003 0.0458,-0.0243 -0.04059,-0.0933 0.07529,-0.11257 0.08246,-0.18469 0.0027,-0.0288 0.03659,-0.0114 0.05628,0.002 0.06632,0.0462 0.116939,0.0552 0.199105,4.5e-4 0.08419,-0.056 0.203237,-0.0801 0.304789,-0.002 0.02135,0.0164 0.04104,0.0182 0.06413,0.006 0.01283,-0.007 0.02988,-0.0207 0.03885,-0.0169 0.05764,0.0232 0.119427,0.0668 0.113919,-0.0523 -6.73e-4,-0.009 0.03742,-0.006 0.05213,0.0214 0.0464,0.0885 0.138061,0.0976 0.207853,0.024 0.03591,-0.0379 0.0082,-0.0546 -0.02135,-0.072 -0.02905,-0.0174 -0.08585,-0.0389 -0.07114,-0.0633 0.02671,-0.0443 0.03961,-0.10154 0.08872,-0.13142 0.03138,-0.0194 0.04926,0.004 0.06594,0.0229 0.03154,0.0368 0.06896,0.0305 0.08465,-0.004 0.03712,-0.0828 0.100567,-0.16545 0.03591,-0.26398 -0.0052,-0.008 -0.0025,-0.0212 -0.0035,-0.0321 0.03719,-0.0174 0.04557,0.0207 0.06775,0.0278 0.02821,0.009 0.06782,0.0327 0.05643,-0.0307 -0.004,-0.0227 -0.0048,-0.0429 0.02505,-0.042 0.02377,6.1e-4 0.03674,0.019 0.03712,0.041 0,0.0167 -0.0044,0.0346 -0.01116,0.0497 -0.01237,0.0271 -0.02527,0.0524 -0.0023,0.0805 0.01313,0.0169 0.03101,0.0206 0.04542,0.008 0.02769,-0.0237 0.06594,-0.042 0.06843,-0.0845 0.0077,-0.11957 0.0084,-0.11859 0.133762,-0.10207 0.0421,0.006 0.09551,0.0239 0.116938,-0.0411 0.01517,-0.0447 0.03086,-0.0951 0.09514,-0.0698 0.0381,0.015 0.03259,0.0541 -0.01283,0.11686 0.06262,0.0152 0.124256,0.002 0.186875,-0.002 0.101019,-0.006 0.05575,-0.11218 0.105018,-0.15359 0.03455,0.0329 -0.0369,0.0778 0.01856,0.0923 0.05492,0.0143 0.114223,0.0211 0.168693,-0.007 0.01765,-0.009 0.03184,-0.0249 0.04776,-0.0376 h -2.19e-4 c 0.04564,-0.0418 0.03108,-0.10871 0.06564,-0.15715 0.01509,-0.021 -0.01102,-0.0407 -0.03251,-0.0524 -0.02271,-0.0124 -0.04308,-0.018 -0.06065,0.008 -0.01238,0.0183 -0.01999,0.0481 -0.0501,0.0377 -0.02437,-0.009 -0.04972,-0.0289 -0.05107,-0.0547 -0.0022,-0.0373 0.03289,-0.0209 0.05243,-0.0239 0.09219,-0.0136 0.175181,-0.0396 0.215618,-0.13596 0.01637,-0.0395 0.04738,-0.0607 0.08812,-0.0658 0.01403,0.0313 -0.0054,0.0401 -0.01614,0.0516 -0.02309,0.0239 -0.04896,0.046 -0.01102,0.0781 0.03251,0.0271 0.07597,0.0304 0.09083,-0.004 0.07182,-0.16854 0.234409,-0.0817 0.348707,-0.12758 0.02852,-0.0116 0.06843,0.0225 0.111355,0.0255 0.104716,0.007 0.174502,-0.0663 0.264886,-0.0885 0.02701,-0.006 0.03456,-0.0292 0.01403,-0.0541 -0.01071,-0.0135 -0.02572,-0.0252 -0.03206,-0.0406 -0.01826,-0.0425 -0.06866,-0.0816 -0.03176,-0.13323 0.03508,-0.0495 0.08819,-0.031 0.135271,-0.0177 0.02504,0.007 0.04858,0.004 0.06548,-0.0111 0.03086,-0.0278 0.04791,-0.0794 0.107507,-0.0399 0.0095,0.006 0.06247,-0.0217 0.02656,-0.0566 -0.02837,-0.0275 -0.02467,-0.0409 0.0051,-0.0582 0.035,-0.0207 0.05976,-0.002 0.06556,0.0291 0.01086,0.0589 0.01222,0.11921 0.07114,0.0223 0.01388,-0.0233 0.03991,-0.021 0.06118,-0.004 0.02784,0.0217 0.05945,0.0336 0.08563,0.005 0.02354,-0.0266 0.02972,-0.0604 0.01222,-0.0969 -0.01041,-0.0207 -0.03908,-0.0443 -0.0097,-0.0687 0.02309,-0.0188 0.04949,10e-4 0.07363,0.002 0.09038,5.2e-4 0.184083,0.0511 0.271067,-0.0172 0.02603,-0.0207 0.04843,0.007 0.07167,0.0155 0.02972,0.0107 0.05311,0.005 0.06277,-0.0259 0.008,-0.0269 -0.0095,-0.0415 -0.03342,-0.0526 -0.02701,-0.0122 -0.07499,-0.006 -0.0756,-0.0431 -0.0013,-0.0468 0.04987,-0.0481 0.08329,-0.0618 0.04127,-0.0169 0.109546,0.005 0.130292,0.0406 0.0058,0.01 0.01282,0.0222 0.02203,0.0259 0.03018,0.0117 0.04572,0.0699 0.08465,0.0413 0.03674,-0.0269 0.0042,-0.0668 -0.012,-0.0927 -0.03093,-0.0489 -0.01652,-0.065 0.03154,-0.09 0.127952,-0.067 0.268884,-0.10705 0.390792,-0.18552 0.03636,-0.0234 0.04723,0.008 0.05907,0.0281 0.0221,0.037 0.04459,0.0493 0.08405,0.0215 0.06058,-0.0428 0.09136,0.0284 0.137609,0.042 0.04142,0.0124 0.07009,0.0426 0.123576,0.0105 0.06579,-0.0395 0.119052,0.009 0.112337,0.0885 -0.0039,0.0446 0.0067,0.0907 -0.03101,0.13565 0.08578,-0.008 0.152925,-0.0155 0.174502,-0.10623 0.0085,-0.0349 0.0384,-0.0485 0.08299,-0.0318 0.09001,0.0331 0.153603,-0.024 0.131423,-0.11521 -0.0069,-0.0291 0.0012,-0.0439 0.02007,-0.0596 0.02422,-0.0201 0.03387,3e-4 0.04821,0.0152 0.04097,0.0426 0.05967,0.0109 0.07416,-0.0249 0.01441,-0.0349 0.0249,-0.0711 0.03923,-0.1057 0.0075,-0.0185 0.02527,-0.0226 0.0439,-0.0191 0.01705,0.003 0.02943,0.0179 0.02142,0.0305 -0.04225,0.0681 0.0054,0.18167 -0.125237,0.20906 0.113016,0.0297 0.158658,-0.002 0.164768,-0.0988 0.0017,-0.0216 0.01426,-0.0545 0.02626,-0.0478 0.05975,0.033 0.138741,-0.0507 0.187705,0.0337 0.01833,0.0319 0.04255,0.0278 0.07378,0.011 0.09906,-0.0533 0.200901,-0.0822 0.310679,-0.0259 0.04052,0.0205 0.07793,-0.002 0.116562,-0.0174 0.06473,-0.0248 0.115355,-0.007 0.126066,0.0674 0.0065,0.0419 0.03191,0.0466 0.06111,0.0436 0.07197,-0.007 0.104037,0.0373 0.145079,0.0878 0.04829,0.0598 0.09393,0.11324 0.108413,0.19291 0.01034,0.0569 0.07001,0.0111 0.104717,0.0294 0.02271,0.0117 0.04021,-0.0142 0.04693,-0.0389 0.01705,-0.0629 0.01637,-0.12758 0.09234,-0.16779 0.05296,-0.0282 0.05047,-0.10388 0.04791,-0.16703 -0.0033,-0.093 0.09551,-0.17548 0.189741,-0.16145 0.04557,0.007 0.08163,0.0298 0.06277,0.0813 -0.01766,0.0486 0.0082,0.0758 0.03961,0.094 0.05394,0.0313 0.08035,0.0705 0.07665,0.13346 -0.0012,0.0215 0.0078,0.0482 0.0215,0.0651 0.03161,0.0398 0.01909,0.0626 -0.01547,0.0932 -0.04715,0.0423 -0.03697,0.0908 0.02467,0.10773 0.06745,0.0187 0.11988,0.0982 0.205594,0.0512 0.05062,-0.0277 0.08502,-0.0776 0.145304,-0.0928 0.02422,-0.006 0.01584,-0.0333 -0.0058,-0.0463 -0.02452,-0.0152 -0.05243,-0.0259 -0.07446,-0.0442 -0.02422,-0.0195 -0.01871,-0.0463 -0.0023,-0.0703 0.01871,-0.0269 0.03395,-0.01 0.04912,0.004 0.01788,0.0167 0.03727,0.0307 0.06149,0.0146 0.02988,-0.02 0.03101,-0.0546 0.01848,-0.0785 -0.03169,-0.0593 -0.01803,-0.11008 -0.004,-0.17247 0.01773,-0.0788 -0.02852,-0.15715 -0.07265,-0.22566 -0.02105,-0.0324 -0.03508,10e-4 -0.05289,0.0135 -0.02927,0.0206 -0.05266,0.0575 -0.09657,0.0459 -0.0055,-0.001 -0.0117,-0.021 -0.009,-0.0297 0.01297,-0.0431 0.03674,-0.085 0.08027,-0.0963 0.06065,-0.0158 0.124935,-0.0232 0.178048,0.0294 0.04044,0.0399 0.08133,0.0787 0.127273,0.11392 0.04942,0.0378 -0.01252,0.0493 -0.04059,0.0595 -0.08405,0.0304 -0.09906,0.0635 -0.05681,0.1321 0.03689,0.0603 0.104867,0.0618 0.136101,-0.002 0.03523,-0.072 0.08005,-0.10019 0.156999,-0.065 0.03961,0.018 0.06548,-0.008 0.09053,-0.0341 0.02399,-0.0252 0.04677,-0.0524 0.08782,-0.0473 0.01803,0.002 0.03493,0.005 0.04512,0.0214 0.0117,0.0195 -0.0022,0.0324 -0.01373,0.0453 -0.0304,0.0347 -0.05424,0.0862 -0.09265,0.10064 -0.09989,0.0379 -0.115581,0.11407 -0.120636,0.20347 -0.0014,0.0237 0.01358,0.0288 0.0261,0.0394 0.03373,0.029 0.06828,0.0576 0.04707,0.11007 -0.0058,0.0145 -0.0072,0.0313 0.01237,0.0344 0.10034,0.0172 0.111733,0.10237 0.136102,0.17699 0.0264,0.0812 0.06692,0.10336 0.13278,0.0621 0.146739,-0.0926 0.414935,0.0294 0.453717,0.18521 0.01283,0.0521 0.04021,0.0703 0.08465,0.0845 0.08684,0.0278 0.148775,0.0963 0.225274,0.14214 0.0082,0.005 0.01487,0.019 0.01487,0.0289 0.0023,0.14976 0.109394,0.21154 0.224289,0.26406 0.03154,0.0143 0.06028,0.0272 0.0633,0.0624 0.0087,0.10223 0.07597,0.16771 0.141457,0.23462 0.0175,-1.5e-4 0.03455,-3e-4 0.05205,-4.5e-4 0.04263,-0.0596 0.0894,-0.0171 0.128254,0.001 0.0553,0.0255 0.103208,0.0546 0.171032,0.0401 0.04458,-0.01 0.08548,0.0275 0.12154,0.0574 0.02912,0.0237 0.05968,0.0459 0.0894,0.0688 0.04225,0.0322 0.08427,0.0197 0.119578,-0.008 0.09649,-0.0758 0.101999,-0.0735 0.190345,0.006 0.08246,0.0738 0.189893,0.11023 0.290902,0.14327 0.07899,0.0257 0.133234,0.0656 0.177144,0.1266 0.02859,0.0399 0.05968,0.0716 0.108111,0.0803 0.07363,0.0128 0.09265,0.10721 0.177821,0.11106 0.04512,0.002 0.08767,0.0404 0.139798,0.0384 0.03206,-6.1e-4 0.05123,0.024 0.06398,0.0519 0.10298,0.0773 0.198197,0.17299 0.346661,0.13911 0.02436,-0.006 0.06375,-0.01 0.07265,0.0149 0.04089,0.11407 0.146134,0.0801 0.225737,0.10517 0.01939,-0.0251 0.04082,-0.0116 0.06247,-0.005 0.02255,0.007 0.05915,0.0137 0.06601,-0.001 0.04157,-0.092 0.175482,0 0.202194,-0.10086 0.0172,-0.0638 0.06262,-0.10774 0.08819,-0.16402 0.01969,-0.0436 0.05243,-0.0618 0.09634,-0.0527 0.03961,0.008 0.09083,0.01 0.07899,0.0761 -0.005,0.0288 0.01637,0.0476 0.03478,0.0666 0.01365,0.014 0.0344,0.0272 0.02807,0.0501 -0.03674,0.13414 0.04836,0.24181 0.08397,0.35822 0.01818,0.0605 0.109545,0.0456 0.165675,0.0699 0.06126,-0.064 0.134214,-0.063 0.209437,-0.034 0.05289,0.0209 0.09619,0.0523 0.06994,0.12124 v -1.6e-4 1.6e-4 c -0.0056,0.006 -0.01139,0.0119 -0.01705,0.0177 -0.0022,0.005 -0.0062,0.0102 -0.0075,0.0157 -0.0058,0.0295 -0.05462,0.0492 -0.03078,0.0819 0.02407,0.0325 0.07167,0.0354 0.104867,0.0204 0.06398,-0.0288 0.09574,0.0168 0.124406,0.0501 0.08337,0.0977 0.207621,0.14674 0.286616,0.24882 0.0304,0.0394 0.07047,0.0414 0.117541,0.0278 0.05793,-0.017 0.1186,-0.0243 0.177217,-0.0382 0.03622,-0.008 0.06662,0.005 0.08616,0.0295 0.06631,0.0844 0.161825,0.13648 0.232825,0.21531 0.02741,0.0306 0.05506,0.0625 0.04557,0.10668 -0.01254,0.0561 0.01071,0.0685 0.06292,0.0713 0.03144,10e-4 0.07016,0.004 0.0937,0.0371 0.01334,0.0182 0.03774,0.0313 0.01854,0.0589 -0.01517,0.0224 -0.03261,0.0237 -0.05928,0.0161 -0.07801,-0.0227 -0.09136,-0.008 -0.07567,0.0723 0.0043,0.0227 0.0061,0.0458 0.0087,0.0688 0.0018,0.0183 0.0069,0.0376 0.02551,0.0414 0.02508,0.005 0.02074,-0.0198 0.02753,-0.0346 0.02502,-0.0513 0.176232,-0.11377 0.227007,-0.0912 0.0449,0.0202 0.07681,0.0546 0.06662,0.10954 -0.01352,0.0721 0.01805,0.0692 0.06549,0.0406 0.03205,-0.0195 0.07023,-0.0274 0.09717,-0.004 0.02704,0.0236 0.01352,0.0582 -0.0055,0.0868 -0.02239,0.0333 1.65e-4,0.0371 0.02704,0.0415 0.03989,0.007 0.07831,0.0146 0.1183,-0.003 0.04588,-0.0207 0.08329,-0.002 0.09566,0.0423 0.01419,0.0499 -0.02135,0.0643 -0.06579,0.0665 -0.02845,0.002 -0.05683,0.014 -0.08472,0.0127 -0.02502,-0.001 -0.05188,-0.0197 -0.06624,0.0155 -0.01089,0.0267 -0.0069,0.0528 0.01951,0.0688 0.02673,0.0162 0.06715,0.0434 0.08533,0.0121 0.03108,-0.0524 0.04362,-0.0256 0.0636,0.002 0.0509,0.0714 0.106071,0.13142 0.206422,0.086 0.0055,-0.002 0.02257,0.007 0.0271,0.0157 0.0091,0.0175 -0.0031,0.0267 -0.01951,0.0287 -0.03744,0.004 -0.06435,0.0227 -0.0531,0.0622 0.01334,0.0473 0.04711,0.0122 0.0716,0.0102 0.04496,-0.004 0.07582,0.0217 0.08585,0.0581 0.0082,0.0279 -0.01217,0.0757 0.03242,0.0739 0.04239,-0.002 0.09415,0.002 0.129238,-0.0346 0.01566,-0.0164 0.02257,-0.0427 0.04973,-0.044 0.01676,-0.001 0.0386,-0.002 0.04949,0.006 0.01835,0.0157 -0.0012,0.0308 -0.01236,0.0429 -0.03591,0.0391 -0.02392,0.0622 0.02453,0.0695 0.03946,0.006 0.0633,0.0289 0.0501,0.0647 -0.02037,0.0574 -0.0012,0.10464 0.01419,0.15857 0.01841,0.0633 0.04246,0.13166 -0.01395,0.19729 -0.02104,0.0247 -0.02062,0.0703 -0.02545,0.10721 -0.0024,0.018 0.02239,0.0437 -1.65e-4,0.0549 -0.02753,0.0136 -0.04662,-0.0114 -0.06314,-0.0326 -0.02325,-0.0302 -0.05561,-0.0382 -0.08231,-0.0113 -0.03328,0.0324 0.0067,0.0504 0.02435,0.0691 0.0394,0.0426 0.08148,0.0828 0.1229,0.12373 0.01034,0.01 0.02288,0.0283 0.03261,0.0269 0.158962,-0.0193 0.151793,0.13474 0.210037,0.2126 0.03475,0.0464 0.05445,0.12139 0.04613,0.19035 -0.007,0.056 0.0074,0.10487 0.04882,0.14161 0.07997,0.0713 0.10215,0.18906 0.199546,0.247 0.04142,0.0249 0.05958,0.0671 0.04692,0.11271 -0.03891,0.13942 0.04129,0.24835 0.09152,0.36327 0.05377,0.1232 0.09966,0.24497 0.08012,0.38303 -0.0031,0.0226 0.01272,0.0485 0.02129,0.0718 0.03169,0.0849 0.0037,0.18137 0.05163,0.26338 0.0055,0.009 -2.2e-4,0.0287 0.0061,0.0329 0.125763,0.0802 0.07952,0.22097 0.100039,0.32969 0.01952,0.1057 0.0081,0.22143 0.03426,0.33082 0.0031,0.0136 -6.12e-4,0.0327 0.0074,0.0419 0.111509,0.12728 0.174128,0.28994 0.300038,0.4065 0.01187,0.0117 0.03291,0.0288 0.0304,0.0389 -0.02435,0.1094 0.07937,0.14161 0.125617,0.20506 0.05463,0.0748 0.116715,0.14296 0.149755,0.23145 0.0055,0.016 0.0137,0.0361 0.02673,0.0437 0.07197,0.0416 0.06495,0.0943 0.02692,0.15376 -0.01707,0.0264 -0.01884,0.0527 -0.0075,0.0824 0.0061,0.0157 0.0055,0.0371 -0.01621,0.0436 -0.02233,0.007 -0.02453,-0.013 -0.03371,-0.0278 -0.04527,-0.0743 -0.108341,-0.13376 -0.183482,-0.17389 -0.06262,-0.0332 -0.08751,-0.0773 -0.120104,-0.14025 -0.05494,-0.10601 -0.06609,-0.20989 -0.07567,-0.322 -0.0061,-0.0717 -0.132707,-0.14523 -0.200531,-0.11951 -0.08736,0.0329 -0.111204,0 -0.123053,-0.0827 -0.007,-0.0501 0.0078,-0.1281 -0.0934,-0.12426 -0.114225,0.004 -0.116862,-0.002 -0.121389,0.11453 -0.0031,0.077 -0.01621,0.14681 -0.06828,0.2083 -0.07484,0.087 -0.05396,0.18838 -0.03359,0.28752 0.02117,0.10359 -0.0031,0.14145 -0.09574,0.19939 -0.05371,0.034 -0.07077,0.10857 -0.123353,0.14983 -0.0055,0.006 -0.01107,0.0122 -0.01658,0.0183 -0.03138,0.0715 -0.04821,0.14599 -0.06443,0.22263 -0.02025,0.0954 -0.0334,0.18152 0.03438,0.26021 0.02288,0.0266 0.03621,0.0512 0.0249,0.0867 -0.03505,0.11 0.02722,0.22408 -0.0072,0.33166 -0.03481,0.10803 -0.03989,0.2132 -0.02655,0.32477 0.01015,0.0828 -0.02808,0.16319 -0.04344,0.24451 -0.01254,0.0653 -0.03291,0.12743 -0.05561,0.18703 -0.01517,0.0399 -0.02618,0.0739 -0.01854,0.11437 0.01609,0.0838 0.01236,0.16266 -0.03254,0.24028 -0.03989,0.068 -0.0227,0.12962 0.05041,0.16749 0.06812,0.0355 0.05781,0.0973 0.04747,0.15247 -0.0078,0.0417 -0.0094,0.0777 0.0024,0.1183 0.01034,0.0342 0.01156,0.0662 -0.0055,0.10599 -0.02875,0.0677 0.02551,0.11272 0.07846,0.14614 0.102829,0.0653 0.14425,0.26299 0.07733,0.36823 -0.01652,0.0262 -0.03775,0.0288 -0.06428,0.0347 -0.105398,0.0229 -0.142666,0.10305 -0.09853,0.20324 0.007,0.0152 0.01101,0.0319 0.0145,0.0486 0.01419,0.0593 0.03261,0.0911 0.09951,0.0431 0.07371,-0.0531 0.101697,-0.0155 0.137307,0.0667 0.0501,0.11573 0.0085,0.26035 0.132254,0.3545 0.05616,0.0424 0.04894,0.13489 -3.31e-4,0.19307 -0.131122,0.15315 -0.153524,0.33112 -0.146966,0.52253 0.0031,0.0843 -0.0043,0.18151 -0.04472,0.25115 -0.03811,0.0659 0.0031,0.1149 0.009,0.15933 0.01652,0.13611 -0.03756,0.28691 0.06812,0.40778 0.01101,0.0125 0.01205,0.0366 0.03206,0.0374 0.02257,0.001 0.02423,-0.0203 0.02943,-0.0362 0.01584,-0.0513 0.0068,-0.11475 0.10155,-0.1069 0.03799,0.003 0.08012,-0.0678 0.08578,-0.12003 0.0055,-0.0495 0.03934,-0.0832 0.04925,-0.12811 0.0024,-0.0132 0.01236,-0.0288 0.02997,-0.0243 0.0167,0.004 0.01652,0.0182 0.0167,0.0342 5.51e-4,0.11309 0.03707,0.22 0.06262,0.32849 0.023,0.0984 0.03004,0.1874 -0.03909,0.27877 -0.06179,0.0813 -0.103208,0.17933 -0.14915,0.27182 -0.0457,0.0929 -0.119352,0.0711 -0.193661,0.0547 -0.06684,-0.0146 -0.08352,-0.0636 -0.08736,-0.12289 -0.0055,-0.0773 -0.04692,-0.13407 -0.118899,-0.15278 -0.107356,-0.0284 -0.176685,0.0107 -0.231161,0.0875 -0.0427,0.0601 -0.09936,0.1127 -0.157604,0.15881 -0.03909,0.0317 -0.06164,0.0625 -0.06918,0.1127 -0.01915,0.12743 -0.03371,0.13475 -0.163257,0.16379 -0.05065,0.0114 -0.109399,0.0272 -0.09891,0.10525 0.01542,0.11271 0.0112,0.11573 -0.102003,0.11905 -0.06948,0.0695 -0.0977,0.14946 -0.07152,0.24866 0.01456,0.0556 -0.02398,0.0905 -0.06828,0.11739 -0.04704,0.0195 -0.08216,0.0459 -0.112861,0.0927 -0.03781,0.0579 -0.08073,0.1309 -0.177896,0.1057 -0.03169,-0.008 -0.04239,0.0288 -0.05891,0.0527 -0.05432,0.0784 -0.07703,0.1837 -0.183182,0.21976 -0.01872,0.007 -0.03591,0.0288 -0.05243,0.0276 -0.09973,-0.01 -0.141454,0.0576 -0.182196,0.12856 -0.0065,0.0169 -0.01786,0.0282 -0.03438,0.0351 -0.05542,0.0339 -0.120789,0.0526 -0.148024,0.12373 -0.0123,0.0319 -0.03756,0.008 -0.05573,-0.005 -0.114905,-0.0845 -0.128406,-0.0898 -0.176318,0.0424 -0.03273,0.0899 -0.09023,0.13965 -0.160315,0.18771 -2.2e-4,0.005 -2.2e-4,0.0112 -5.5e-4,0.0171 -0.0012,0.0313 -0.01872,0.0525 -0.04692,0.0637 -0.01254,0.005 -0.02545,-0.003 -0.02722,-0.0136 -0.0055,-0.032 0.01291,-0.0528 0.03921,-0.0674 -0.0049,-0.081 -0.07363,-0.0585 -0.117388,-0.067 -0.03322,-0.006 -0.08616,-0.0229 -0.09347,0.0431 -0.0012,0.008 -0.0062,0.0219 -0.01058,0.0221 -0.152096,0.0169 -0.130894,0.17088 -0.200071,0.25251 -0.03154,0.0376 -0.07061,0.0473 -0.116183,0.0458 -0.08284,-0.002 -0.117239,0.0431 -0.146134,0.11769 -0.02286,0.0597 -0.05228,0.13082 -0.119051,0.15949 -0.04496,0.0195 -0.03991,0.0568 -0.04097,0.0855 -8.56e-4,0.0313 0.03561,0.0183 0.05666,0.0206 0.08299,0.009 0.108715,0.0663 0.0673,0.13957 -0.02173,0.0382 -0.05394,0.0627 -0.08955,0.0787 -0.03622,0.0167 -0.0504,0.0319 -0.03305,0.0711 0.0097,0.0229 0.0169,0.0544 -0.01154,0.0703 -0.03101,0.0175 -0.05605,-0.003 -0.0756,-0.0261 -0.02723,-0.0324 -0.06119,-0.0408 -0.101246,-0.037 -0.03976,0.004 -0.0673,0.0398 -0.05892,0.063 0.04406,0.11822 -0.04579,0.18355 -0.0937,0.26517 -0.01433,0.0242 -0.03093,0.0449 -0.06194,0.0313 -0.02927,-0.0132 -0.02875,-0.0416 -0.02588,-0.0681 0.0023,-0.0229 0.0083,-0.0439 4.38e-4,-0.068 -0.02037,-0.0638 -0.06964,-0.0797 -0.114675,-0.0302 -0.04896,0.0523 -0.09234,0.10977 -0.136478,0.16598 -0.02105,0.0271 -0.04912,0.0563 -0.07914,0.0376 -0.05998,-0.0379 -0.0685,0.004 -0.09219,0.0415 -0.04677,0.0736 -0.09204,0.1404 -0.179708,0.18748 -0.0771,0.042 -0.150963,0.11278 -0.216081,0.18219 -0.02656,0.0285 -0.05409,0.0518 -0.09717,0.0468 -0.01336,-10e-4 -0.03523,0.001 -0.04044,0.01 -0.05424,0.0899 -0.160846,0.0892 -0.2375,0.13965 -0.03221,0.021 -0.06677,0.0427 -0.08465,0.0739 -0.08646,0.15028 -0.245342,0.19594 -0.383106,0.27205 -0.01698,0.009 -0.03124,0.008 -0.04504,-0.008 -0.05243,-0.0623 -0.109545,-0.0666 -0.148172,0.002 -0.04376,0.0781 -0.10034,0.0855 -0.172011,0.0637 -0.07763,-0.024 -0.139723,-0.001 -0.195994,0.0533 -0.067,0.0647 -0.124634,0.0586 -0.205962,0.004 -0.0384,-0.0261 -0.103509,-0.11121 -0.131046,0.0164 -0.0017,0.007 -0.01019,0.0162 -0.01743,0.0187 -0.188157,0.0641 -0.129536,0.23462 -0.158281,0.36726 -0.0035,0.0165 0.007,0.0272 0.02354,0.0297 0.01818,0.003 0.0344,-0.001 0.04761,-0.0148 0.01886,-0.0198 0.0037,-0.0538 0.02988,-0.0696 0.02422,-0.0479 0.05862,-0.0416 0.09068,-0.0129 0.03222,0.0291 0.05228,0.0742 0.01456,0.10426 -0.04776,0.0376 -0.100869,0.0898 -0.174199,0.0472 -0.05296,0.0203 -0.08865,0.0172 -0.09001,-0.0546 -6.72e-4,-0.0368 -0.01886,-0.0721 -0.01607,-0.11083 0.0015,-0.0221 0.0061,-0.0499 -0.02467,-0.0573 -0.02626,-0.007 -0.05779,-0.008 -0.06979,0.0194 -0.02377,0.0534 -0.08684,0.0553 -0.117769,0.0994 -0.02369,0.0341 -0.05892,0.0116 -0.07265,-0.0105 -0.02354,-0.0388 -0.03689,-0.084 -0.05327,-0.12758 -0.01433,-0.0386 0.02173,-0.0408 0.04172,-0.0527 0.02791,-0.0165 0.03425,5.5e-4 0.03697,0.025 0.0025,0.022 0.01418,0.042 0.03885,0.0373 0.02505,-0.005 0.05161,-0.0155 0.06028,-0.0439 0.0072,-0.0227 -0.004,-0.0423 -0.02482,-0.0492 -0.03546,-0.0122 -0.04595,-0.0239 -0.0099,-0.0486 0.01856,-0.0129 0.02535,-0.0321 0.01403,-0.0535 -0.012,-0.0229 -0.03003,-0.0187 -0.05191,-0.0143 -0.09687,0.0207 -0.190572,0.0559 -0.290092,0.0629 -0.0099,5.5e-4 -0.02821,0.0129 -0.02776,0.0177 0.01019,0.0736 -0.07967,0.10721 -0.07114,0.17723 0.0042,0.0327 -0.01132,0.0434 -0.03606,0.0456 -0.03108,0.002 -0.05892,0.0554 -0.09136,0.0122 -0.02483,-0.033 -0.06964,-0.0284 -0.09302,-0.0608 -0.01019,-0.0147 -0.02784,-0.0236 -0.04504,-0.009 -0.01856,0.0146 -0.02339,0.0354 -0.0092,0.0541 0.06164,0.081 0.0045,0.12675 -0.05145,0.17187 -0.03373,0.0269 -0.07348,0.0472 -0.103509,0.0775 -0.02188,0.0223 -0.03508,0.0379 -0.06081,0.009 -0.02052,-0.0225 -0.02656,-0.0449 -0.003,-0.0684 0.01705,-0.0171 0.05598,-0.0217 0.04346,-0.0556 -0.01222,-0.0343 -0.04912,-0.0199 -0.07582,-0.0269 -0.116712,-0.0294 -0.181216,0.0398 -0.237345,0.1229 -0.01531,0.0229 -0.0255,0.0321 -0.05477,0.0211 -0.07544,-0.0272 -0.128708,-0.11739 -0.08284,-0.1705 0.07333,-0.0846 -0.01433,-0.12555 -0.03553,-0.18251 -0.0099,-0.0267 -0.04444,-0.0443 -0.06782,-0.0656 -0.01833,-0.0167 -0.03357,-0.0453 -0.06292,-0.0132 -0.02105,0.0236 -0.01992,0.0434 -0.003,0.07 0.01773,0.0278 0.08201,0.0423 0.04806,0.0834 -0.0123,0.0155 -0.03244,0.0125 -0.05304,0.006 z m -0.192835,-0.16674 c 0.0026,1.7e-4 0.0052,3.8e-4 0.0078,6e-4 6.73e-4,6e-5 0.0013,1.7e-4 0.002,2.2e-4 4.38e-4,-0.0177 -0.03335,-0.041 -0.0682,-0.0485 -0.0049,-0.001 -0.01033,-0.002 -0.01599,-0.003 0.02753,0.0128 0.05153,0.0297 0.07446,0.0505 z m 8.070988,-3.47529 c 0.01652,-3.3e-4 0.02355,0.0151 0.02453,0.03 0.0024,0.0284 0.0062,0.0573 -0.01199,0.084 -0.04484,0.067 -0.08518,0.13792 -0.133611,0.20205 -0.04374,0.0585 -0.01419,0.13632 -0.06232,0.1929 -0.02502,0.0299 -0.02172,0.0775 -0.0553,0.10419 -0.0928,0.16348 -0.256812,0.26707 -0.348996,0.43788 -0.05726,0.10691 -0.146587,0.20845 -0.230488,0.30676 -0.06896,0.0807 -0.138891,0.15104 -0.229118,0.20513 -0.04692,0.0278 -0.02973,0.10019 -0.07846,0.13074 -0.05781,0.0355 -0.100871,0.0847 -0.133759,0.14365 -0.07183,0.12953 -0.197062,0.21019 -0.291736,0.31724 -0.12041,0.13678 -0.287736,0.21261 -0.410336,0.34372 -0.196689,0.11 -0.361824,0.26217 -0.533018,0.40544 -0.03712,0.0309 -0.07416,0.0545 -0.120107,0.0641 -0.07129,0.0146 -0.126897,0.052 -0.168995,0.11091 -0.03855,0.0541 -0.218939,0.11671 -0.275528,0.0963 -0.0344,-0.0122 -0.04263,-0.0415 -0.03093,-0.0703 0.01705,-0.0449 0.0344,-0.089 0.08616,-0.11302 0.07016,-0.0336 0.123955,-0.0872 0.163864,-0.15715 0.02188,-0.0388 0.05447,-0.0763 0.101021,-0.0914 0.02474,-0.008 0.03946,-0.0226 0.05025,-0.0439 0.03124,-0.063 0.05515,-0.13074 0.142965,-0.13911 0.0249,-0.002 0.02339,-0.0321 0.02022,-0.0583 -0.01222,-0.10087 0.02875,-0.15459 0.13127,-0.15859 0.08465,-0.004 0.125916,-0.0336 0.168011,-0.11406 0.0449,-0.0879 0.109698,-0.1742 0.194719,-0.23683 0.0055,-0.0281 0.01364,-0.0537 0.0012,-0.084 -0.03603,-0.0871 0.0024,-0.15949 0.05408,-0.22732 0.03713,-0.0486 0.05414,-0.10419 0.05347,-0.16349 -6.12e-4,-0.0925 0.08435,-0.14961 0.171485,-0.14877 0.08246,3.3e-4 0.17488,3.3e-4 0.249336,-0.045 0.03658,-0.022 0.07748,-0.0428 0.111509,-0.0398 0.08955,0.007 0.131948,-0.0549 0.173742,-0.10819 0.07832,-0.0999 0.145082,-0.20845 0.218266,-0.31265 0.01566,-0.0229 0.0072,-0.038 -0.01003,-0.0521 -0.02257,-0.0184 -0.03823,-0.0573 -0.02435,-0.0682 0.07725,-0.0579 0.0636,-0.18952 0.176684,-0.21637 0.03371,-0.008 0.05261,-0.0339 0.07061,-0.0608 0.02325,-0.0346 0.05426,-0.0516 0.09687,-0.0415 0.06013,0.0288 0.05989,-0.0165 0.04808,-0.0478 -0.02337,-0.0608 0.0049,-0.11174 0.01872,-0.16538 0.0024,-0.008 5.51e-4,-0.0222 0.0055,-0.0248 0.09838,-0.0521 0.09521,-0.19328 0.206037,-0.23417 0.01456,-0.0706 0.08804,-0.0964 0.118293,-0.15549 0.0055,-0.0105 0.02221,-0.016 0.02949,-0.007 0.01591,0.019 0.01676,0.0478 0.0037,0.0651 -0.03524,0.0459 -0.04662,0.0992 -0.05365,0.15277 -0.01113,0.0825 -0.01847,0.16567 -0.02618,0.24851 -0.0018,0.0204 1.65e-4,0.0409 0.02325,0.0521 0.03677,-0.0132 0.02839,-0.0531 0.04558,-0.0785 0.01884,-0.0275 0.01517,-0.0898 0.07816,-0.0416 0.01982,0.015 0.03505,-0.011 0.0449,-0.0288 0.03108,-0.0546 0.103208,-0.0748 0.119731,-0.14206 0.0018,-0.008 0.01786,-0.0174 0.02759,-0.0174 z m 1.574448,-4.23838 c 0.153224,0.0602 0.03775,0.1441 0.06707,0.21456 0.01468,0.0347 -0.136555,0.0522 -0.213726,0.0727 -0.208068,0.0561 -0.252432,0.0366 -0.248144,-0.11135 -0.05041,-0.14998 0.201443,-0.22339 0.348323,-0.32886 0.02576,-0.0185 0.07748,-0.0185 0.108188,0.001 0.03144,0.0207 -0.0061,0.0352 -0.02869,0.0478 -0.05573,0.0308 -0.124558,0.0677 -0.03303,0.10358 z m -16.226158,7.1839 c 0.02791,0.0589 0.09702,0.10222 0.143268,0.15398 0.03161,0.0366 0.126595,0.0777 -0.02074,0.10555 -0.04564,0.008 -0.02384,0.0373 0.0054,0.053 0.05545,0.0298 0.03674,0.0611 0.0017,0.0886 -0.03878,0.0296 -0.09083,0.0498 -0.155112,0.0387 -0.07891,-0.0144 -0.135722,-0.0554 -0.221797,-0.0657 -0.04972,-0.006 -0.0378,-0.0524 3.28e-4,-0.0622 0.113994,-0.0298 0.09559,-0.10765 0.154132,-0.15639 0.04663,-0.0393 0.01841,-0.0724 -0.05032,-0.0874 -0.05205,-0.0113 -0.120786,-0.025 -0.111656,-0.0604 0.01327,-0.0537 0.115731,-0.0203 0.154132,-0.045 0.06232,-0.01 0.08782,0.009 0.100717,0.0374 z m -0.76258,-0.46768 c -0.06141,0.0742 0.0016,0.11536 0.05537,0.17058 0.07084,0.0727 0.0044,0.12644 -0.149228,0.12689 -0.07952,0.006 -0.138892,-0.0145 -0.170202,-0.058 -0.04036,-0.0572 -0.02807,-0.12516 -0.129461,-0.16959 -0.01064,-0.005 -0.0051,-0.0337 0.0079,-0.0384 0.117617,-0.0413 0.124709,-0.1131 0.163865,-0.17345 0.04119,-0.0646 0.09981,-0.0454 0.136177,-0.009 0.04632,0.0473 0.11558,0.11392 0.08555,0.15089 z m 9.480484,1.62053 c 0.0126,-0.007 0.03772,-0.004 0.05696,-0.005 0.05289,0.006 0.157905,0.0326 0.09649,0.0547 -0.224444,0.0816 -0.09091,0.22633 -0.151567,0.33324 -0.01886,0.0326 0.01886,0.0827 -0.06141,0.0935 -0.07612,0.0103 -0.06654,-0.0431 -0.0928,-0.0695 -0.01517,-0.0147 -0.04028,-0.0279 -0.04398,-0.0434 -0.0163,-0.0592 -0.151264,-0.0739 -0.104641,-0.15805 0.05734,-0.10231 0.190797,-0.14493 0.300945,-0.20589 z m -1.787342,-0.1825 c 0.06375,0.0745 0.192231,0.0844 0.259305,0.16598 0.0676,0.0834 0.02799,0.14372 -0.01396,0.21304 -0.02565,0.0426 -0.06956,0.0737 -0.135723,0.0689 -0.103284,-0.008 -0.125539,-0.0785 -0.153982,-0.13482 -0.04104,-0.0827 -0.06571,-0.17013 -0.09657,-0.25492 -0.01501,-0.0352 4.38e-4,-0.063 0.0381,-0.0823 0.04489,-0.0222 0.07582,-0.006 0.10283,0.0242 z M 77.909099,163.8353 c -0.138591,-0.0227 -0.149681,-0.15503 -0.158886,-0.27091 0.0039,-0.068 -0.002,-0.1622 0.09031,-0.14342 0.126519,0.0261 0.144325,0.14826 0.149153,0.25788 0.0029,0.0656 -0.0077,0.16854 -0.08057,0.15647 z m 3.520875,20.69843 c -0.02361,-0.0941 -0.08268,-0.15526 -0.183103,-0.1659 0,0.002 -6.72e-4,0.004 -0.0019,0.006 -0.0026,-0.002 -0.0052,-0.005 -0.0078,-0.007 -0.08155,-0.006 -0.149529,0.0349 -0.145758,0.12426 0.0034,0.10185 0.07824,0.16266 0.181066,0.17186 0.0024,2.2e-4 0.0048,4.4e-4 0.0072,5.5e-4 0.0295,-0.0217 0.03319,-0.0565 0.03478,-0.0924 -0.03735,-0.0611 -0.197656,-0.10004 -0.07401,-0.19208 0.002,-0.001 0.0035,-0.003 0.0045,-0.005 0.0085,0.008 0.01698,0.0169 0.0255,0.0262 0.03357,0.037 0.0057,0.13082 0.105319,0.11973 0.01411,-0.001 0.03432,0.007 0.05417,0.0135 z m 7.869536,-13.034 h -4.41e-4 c 0,4.4e-4 4.41e-4,4.4e-4 4.41e-4,6.1e-4 z m -0.06994,-0.31377 v 6.1e-4 c 0,-4.4e-4 4.4e-4,-4.4e-4 4.4e-4,-6.1e-4 z"
         fill="#2e559d"
         fill-rule="evenodd"
         id="path335"
         style="stroke-width:0.0193137"
         clip-path="url(#clipPath452)"
         transform="translate(-0.28617333,0.30537505)" /></g><text
       xml:space="preserve"
       style="font-style:normal;font-variant:normal;font-weight:bold;font-stretch:normal;font-size:3.88056px;line-height:1.25;font-family:Arial;-inkscape-font-specification:'Arial, Bold';font-variant-ligatures:normal;font-variant-caps:normal;font-variant-numeric:normal;font-variant-east-asian:normal;fill:#000000;fill-opacity:1;stroke:none;stroke-width:0.0181949"
       x="71.787415"
       y="185.10912"
       id="text22359-1-5"
       inkscape:export-filename="/home/catherine/Documents/epiplots/man/figures/logo.svg"
       inkscape:export-xdpi="200"
       inkscape:export-ydpi="200"><tspan
         sodipodi:role="line"
         id="tspan22357-8-9"
         x="71.787415"
         y="185.10912"
         style="font-style:normal;font-variant:normal;font-weight:bold;font-stretch:normal;font-size:3.88056px;font-family:Arial;-inkscape-font-specification:'Arial, Bold';font-variant-ligatures:normal;font-variant-caps:normal;font-variant-numeric:normal;font-variant-east-asian:normal;fill:#000000;stroke-width:0.0181949">episnips</tspan></text><path
       d="m 90.335656,149.35625 c -2.691395,0 -5.244778,0.78694 -7.430692,2.28274 l -1.147826,-1.36642 c -0.383903,-0.45654 -1.130889,-0.3165 -1.316937,0.24692 l -1.448999,4.39539 c -0.1598,0.48538 0.208233,0.98365 0.726988,0.98365 0.07398,0 0.0059,0.006 4.757646,-0.5763 0.598137,-0.0732 0.878605,-0.76815 0.49482,-1.22481 l -1.08798,-1.29481 c 1.905179,-1.27287 4.120308,-1.94215 6.452891,-1.94215 6.933545,0 12.282293,5.96717 11.430833,12.73299 -0.0566,0.44907 0.29959,0.84416 0.75954,0.84416 0.38058,0 0.71005,-0.27849 0.75791,-0.65968 0.96408,-7.66261 -5.095752,-14.42176 -12.948194,-14.42176 z m -9.519119,4.89837 0.649205,-1.96884 1.439811,1.71332 z"
       id="path508"
       style="fill:#305699;stroke-width:0.0292034" /><g
       fill="#305699"
       id="g3776"
       transform="matrix(0.00697391,-0.0140159,0.01406072,0.00699619,66.462755,176.64802)"
       style="fill:#000000"><path
         d="m 490.11,721.98 c -1.3242,16.668 -2.6445,35.023 -3.6445,51.812 -0.96094,18.633 -5.4883,60.145 -12.863,120.57 -12.02,5.4492 -23.359,12.504 -33.699,20.918 -64.355,52.852 -73.73,148.18 -20.836,212.66 28.73,35.062 71.367,55.176 116.77,55.176 34.82,0 68.883,-12.18 95.848,-34.34 64.312,-52.812 73.73,-148.22 20.875,-212.7 -22.398,-27.207 -53.574,-45.641 -87.875,-52.293 l 45.922,-162.21 c -56.02,0.83984 -98.215,1.1211 -110.59,1.1211 -1.082,0.0391 -4.8906,-0.28125 -9.8984,-0.72266 z m 93.445,270.92 c 21.559,26.285 17.672,65.195 -8.4961,86.832 -25.484,20.875 -66.117,16.75 -86.914,-8.4961 -21.559,-26.328 -17.711,-65.316 8.5742,-86.914 10.898,-9.0977 24.844,-14.023 39.07,-14.023 18.473,0 35.984,8.2148 47.766,22.602 z"
         id="path3770"
         style="fill:#000000" /><path
         d="m 809.75,16.891 -25.285,1.082 c -4.7695,0.19922 -116.12,6.6133 -165.33,139.21 -27.047,72.891 -64.676,233.97 -92.965,363.8 l 144.46,-11.539 z"
         id="path3772"
         style="fill:#000000" /></g><path
       d="m 63.815538,157.15694 c 1.844423,0 3.344792,-1.5005 3.344792,-3.34479 0,-1.8443 -1.500498,-3.3448 -3.344792,-3.3448 -1.844294,0 -3.344792,1.5005 -3.344792,3.3448 0,1.84429 1.500498,3.34479 3.344792,3.34479 z m 0,-5.01606 c 0.921325,0 1.670623,0.7493 1.670623,1.67127 0,0.92132 -0.749298,1.67126 -1.670623,1.67126 -0.921325,0 -1.670623,-0.74929 -1.670623,-1.67126 0,-0.92133 0.749298,-1.67127 1.670623,-1.67127 z"
       id="path506"
       style="fill:#000000;fill-opacity:1;stroke:#000000;stroke-width:0.032239;stroke-opacity:1" /><path
       style="fill:#000000;fill-opacity:1;stroke:#000000;stroke-width:0.710481;stroke-linecap:round;stroke-linejoin:round;stroke-dashoffset:0.399999;stroke-opacity:1"
       id="path1574"
       sodipodi:type="arc"
       sodipodi:cx="63.815224"
       sodipodi:cy="153.74951"
       sodipodi:rx="0.9949559"
       sodipodi:ry="0.9949559"
       sodipodi:start="0"
       sodipodi:end="6.2775729"
       sodipodi:open="true"
       sodipodi:arc-type="arc"
       d="m 64.81018,153.74951 a 0.9949559,0.9949559 0 0 1 -0.99356,0.99496 0.9949559,0.9949559 0 0 1 -0.996348,-0.99217 0.9949559,0.9949559 0 0 1 0.990764,-0.99774 0.9949559,0.9949559 0 0 1 0.999128,0.98937" /><g
       id="g1516"
       clip-path="url(#clipPath1518-5)"
       style="fill:#000000;fill-opacity:1;stroke:#ffffff;stroke-width:0.118193;stroke-dasharray:none;stroke-opacity:1"
       transform="matrix(1.7209116,0,0,1.7209116,-57.577854,-130.12148)"><path
         d="m 71.982292,178.82854 c -0.373134,0.0928 -0.634463,0.42791 -0.634463,0.81239 v 1.88433 c 0,0.38449 0.261942,0.71896 0.634463,0.81239 l 0.627918,0.15654 c 0.926741,0.23033 1.233269,0.97133 0.740981,1.78978 l -0.333351,0.55473 c -0.198218,0.3292 -0.146462,0.75107 0.125554,1.02307 l 1.331985,1.33263 c 0.272016,0.27202 0.694008,0.32378 1.023071,0.12556 l 0.554736,-0.33335 c 0.816549,-0.491 1.558174,-0.18689 1.789133,0.74098 l 0.155905,0.62792 c 0.09281,0.37313 0.427908,0.63507 0.812389,0.63507 h 1.884335 c 0.384482,0 0.718961,-0.26194 0.81239,-0.63507 0.155401,-0.6255 0.244561,-1.28792 0.830282,-1.53084 0.585718,-0.2428 1.116016,0.16195 1.669495,0.49516 0.329192,0.19822 0.751071,0.14646 1.023071,-0.12555 l 1.331985,-1.33263 c 0.272016,-0.27202 0.323131,-0.69401 0.125554,-1.02308 -0.332706,-0.55296 -0.737982,-1.08377 -0.495158,-1.67013 0.133866,-0.32265 0.454731,-0.56241 0.902949,-0.67438 l 0.627918,-0.1559 c 0.37265,-0.0928 0.634463,-0.42791 0.634463,-0.81239 v -1.88434 c 0,-0.38448 -0.261942,-0.71957 -0.634463,-0.81239 l -0.627918,-0.15653 c -0.926741,-0.23097 -1.233269,-0.97133 -0.74098,-1.78978 l 0.333351,-0.55474 c 0.197589,-0.32919 0.146461,-0.75107 -0.125555,-1.02307 l -1.331985,-1.33263 c -0.272016,-0.27201 -0.694008,-0.32313 -1.023071,-0.12492 -0.55235,0.33209 -1.083294,0.73798 -1.669495,0.49515 -0.586233,-0.24279 -0.67489,-0.9052 -0.830282,-1.53083 -0.09281,-0.37313 -0.427908,-0.63446 -0.812389,-0.63446 h -1.884335 c -0.384482,0 -0.718961,0.26131 -0.811777,0.63446 -0.155905,0.6255 -0.244562,1.28791 -0.830895,1.53083 -0.585718,0.2423 -1.116016,-0.16195 -1.669495,-0.49515 -0.329707,-0.19822 -0.751683,-0.14647 -1.023071,0.12492 l -1.332629,1.33263 c -0.272017,0.27202 -0.323132,0.69401 -0.125555,1.02307 0.332706,0.55348 0.737982,1.08378 0.495158,1.67014 -0.242169,0.58646 -0.904593,0.67451 -1.530222,0.83041 z m 2.806917,-2.80202 0.407662,-0.40766 c 1.778946,1.06476 3.763254,0.2428 4.268116,-1.76824 h 0.576142 c 0.504734,2.01052 2.489719,2.833 4.268116,1.76824 l 0.407146,0.40766 c -1.064756,1.77843 -0.242798,3.7639 1.768243,4.26876 v 0.57615 c -2.010519,0.50537 -2.832483,2.4902 -1.768243,4.26876 l -0.407146,0.40766 c -1.77843,-1.06476 -3.763253,-0.2423 -4.268116,1.76824 h -0.576142 c -0.504733,-2.01052 -2.489718,-2.833 -4.268116,-1.76824 l -0.407662,-0.40766 c 1.064757,-1.77843 0.242798,-3.7639 -1.767726,-4.26876 v -0.57615 c 2.010518,-0.50537 2.832483,-2.49033 1.767726,-4.26876 z"
         id="path504"
         style="fill:#666666;fill-opacity:1;stroke:#ffffff;stroke-width:0.118193;stroke-dasharray:none;stroke-opacity:1" /></g><path
       d="m 76.381843,176.50581 c -0.478594,-0.26721 -1.03843,-0.36353 -1.581931,-0.26486 -0.701237,0.12725 -1.300563,0.55575 -1.645878,1.17755 -0.264966,0.47715 -0.355686,1.03597 -0.257809,1.57393 0.237193,1.28263 1.475039,2.13867 2.76097,1.90626 0.700931,-0.12669 1.301932,-0.5557 1.647274,-1.17772 0.264653,-0.47656 0.354589,-1.03657 0.256405,-1.57395 -0.03728,-0.20512 -0.101934,-0.4024 -0.191424,-0.58991 0.521727,-0.79952 0.887862,-1.34098 1.065143,-1.57328 0.428559,-0.56567 0.951173,-1.32016 0.967192,-1.3451 0.120715,-0.21993 2.988345,-5.43991 3.683707,-7.36357 0.751234,-2.08138 -0.518941,-3.28881 -0.573955,-3.33887 l -0.293638,-0.26958 z m -0.201938,1.89185 c 0.09386,0.50629 -0.270223,1.03102 -0.776822,1.12282 -0.253892,0.0462 -0.512242,-0.01 -0.725048,-0.15653 -0.212316,-0.14657 -0.355346,-0.36738 -0.402307,-0.621 -0.04086,-0.22072 -0.0037,-0.44839 0.105019,-0.64417 0.140961,-0.25401 0.385701,-0.42867 0.672105,-0.48069 0.525356,-0.0943 1.031214,0.2548 1.127117,0.77942 z m 3.337311,-5.03375 c -0.155339,0.27967 -0.507469,0.37974 -0.788587,0.22367 -0.28076,-0.15559 -0.382327,-0.50793 -0.227017,-0.78763 0.155651,-0.28027 0.5086,-0.38067 0.789204,-0.22478 0.281242,0.15588 0.38201,0.5085 0.2264,0.78874 z"
       id="path3774-7"
       style="fill:#000000;stroke:#ffffff;stroke-width:0.269375;stroke-dasharray:none;stroke-opacity:1" /></g></svg>
